<svg version="1.1" id="Layer_1" xmlns="http://www.w3.org/2000/svg" xmlns:xlink="http://www.w3.org/1999/xlink" x="0px" y="0px"
	 width="100%" viewBox="0 0 1024 1024" enable-background="new 0 0 1024 1024" xml:space="preserve">
<path fill="#FFFFFF" opacity="1.000000" stroke="none" 
	d="
M459.000000,1025.000000 
	C306.000000,1025.000000 153.500000,1025.000000 1.000000,1025.000000 
	C1.000000,683.666687 1.000000,342.333344 1.000000,1.000000 
	C342.333344,1.000000 683.666687,1.000000 1025.000000,1.000000 
	C1025.000000,342.333344 1025.000000,683.666687 1025.000000,1025.000000 
	C836.500000,1025.000000 648.000000,1025.000000 459.000000,1025.000000 
M920.514465,593.753296 
	C916.435547,591.664917 912.249939,590.155884 908.164246,593.492798 
	C905.061157,596.027222 905.806519,599.266846 906.444580,603.062927 
	C905.359375,600.141724 904.274231,597.220520 903.259644,594.489380 
	C901.181091,599.066162 902.322449,603.534302 906.568115,606.669312 
	C911.209167,610.096436 917.509399,609.823792 921.628174,606.017639 
	C925.298706,602.625732 926.513123,597.515564 924.205750,593.951233 
	C923.760010,593.262695 922.138672,593.335266 920.514465,593.753296 
M512.037537,418.613922 
	C511.336060,419.438263 510.101013,420.221161 510.033112,421.094757 
	C509.829590,423.714447 510.081879,426.369598 509.968811,429.871277 
	C509.968811,431.137115 509.968811,432.402954 509.968811,434.013977 
	C568.235962,434.013977 625.987122,434.013977 683.721802,434.013977 
	C687.349121,417.938263 681.907837,406.635406 668.177124,400.990540 
	C633.271240,386.640350 598.464172,372.047852 563.494873,357.854675 
	C553.549744,353.818207 545.653076,347.998260 540.213318,338.588684 
	C534.972107,329.522583 526.900574,323.835449 516.663147,321.411041 
	C514.129761,320.811066 511.522339,320.523834 509.242798,320.142029 
	C507.768066,315.961365 510.823242,315.358673 513.011536,313.993378 
	C523.254028,307.602875 529.344055,298.817383 527.989380,286.255859 
	C526.712280,274.413635 520.157532,266.263824 509.190002,261.941620 
	C491.442596,254.947571 472.361572,265.913971 469.591095,284.468506 
	C468.813629,289.675507 471.575073,294.693420 475.738495,295.639160 
	C479.418823,296.475128 482.604950,293.371063 484.161407,287.627380 
	C484.591797,286.039093 485.275848,284.485962 486.059052,283.032867 
	C488.984711,277.604767 493.902161,275.129272 500.161346,275.809174 
	C505.421875,276.380615 510.726776,281.216309 512.014099,286.613678 
	C513.207642,291.617645 511.281006,297.642456 506.065277,300.327515 
	C497.815887,304.574249 491.955017,309.563080 495.358246,319.947418 
	C493.084473,320.219757 491.626831,320.444611 490.160553,320.562073 
	C477.629089,321.566101 468.130066,327.373749 461.783630,338.299133 
	C460.616486,340.308319 459.098877,342.110413 457.837372,344.068909 
	C454.378845,349.438416 449.573578,352.964386 443.670013,355.383789 
	C407.545380,370.188568 371.563660,385.346771 335.336884,399.895477 
	C319.256958,406.353180 315.083893,415.654724 317.516357,433.941772 
	C377.428375,433.941772 437.335663,433.941772 497.514008,433.941772 
	C497.514008,428.692352 497.514008,423.814453 497.514008,418.288330 
	C449.962433,418.288330 402.707031,418.288330 355.451630,418.288330 
	C402.623779,397.353149 449.791290,377.074036 497.035248,356.974579 
	C499.016968,356.131500 502.009094,356.259186 504.028748,357.116577 
	C545.185120,374.588287 586.267944,392.233246 627.366150,409.841888 
	C633.350281,412.405823 639.338257,414.960876 646.601868,418.066162 
	C644.492188,418.453644 643.895752,418.659485 643.299438,418.658966 
	C609.142639,418.629272 574.985901,418.559784 540.829102,418.552277 
	C531.526611,418.550232 522.224182,418.729858 512.037537,418.613922 
M752.767151,553.298950 
	C768.416260,544.443787 773.901306,530.211426 772.634521,513.279053 
	C771.342224,496.006317 761.916565,483.928131 745.375488,478.729614 
	C736.924500,476.073639 727.809753,474.591675 718.948914,474.362579 
	C696.807312,473.790070 674.639404,474.234161 652.482056,474.283112 
	C651.399780,474.285522 650.317688,474.410309 648.962463,474.495209 
	C651.511230,477.207336 653.688232,479.597565 655.945435,481.909515 
	C659.962524,486.024139 660.484558,487.071381 659.904358,490.353668 
	C659.739136,490.332306 659.539185,490.363434 659.414490,490.280853 
	C658.728394,489.826691 658.024780,489.388428 657.392151,488.865936 
	C643.775696,477.619141 628.197021,472.896240 610.559143,474.001282 
	C587.585266,475.440613 564.785278,491.990143 557.716187,513.691589 
	C553.198425,527.560791 553.174988,542.193604 555.797729,556.221802 
	C561.800415,588.327393 598.149597,610.381165 629.804077,602.292664 
	C641.066162,599.414978 651.368164,594.811646 660.337952,585.964111 
	C662.005493,596.155945 651.973816,597.463074 648.742065,603.645142 
	C663.781616,603.645142 678.333069,603.645142 694.004822,603.645142 
	C694.004822,597.029846 694.149902,590.718628 693.942688,584.418884 
	C693.841370,581.338989 695.442444,580.004272 697.968323,579.977356 
	C702.158386,579.932617 706.353760,580.385559 711.171875,580.665161 
	C711.171875,575.421814 711.171875,569.387695 711.171875,563.167725 
	C726.058044,563.444153 739.555359,560.427490 752.767151,553.298950 
M150.734650,570.152527 
	C145.418961,581.287231 140.103271,592.421875 134.552673,604.048645 
	C144.137253,604.048645 152.793137,604.171326 161.438065,603.918640 
	C162.759415,603.879944 164.574539,602.382996 165.231888,601.088623 
	C168.447144,594.757080 171.347610,588.265686 174.306519,581.943665 
	C188.414978,581.943665 202.070267,581.855408 215.720901,582.067078 
	C217.248489,582.090759 219.389282,583.457520 220.149796,584.815308 
	C223.067871,590.025269 225.745789,595.397522 228.086334,600.891052 
	C229.187637,603.475952 230.538712,604.200439 233.226471,604.162842 
	C244.219299,604.009155 255.215546,604.101074 266.210541,604.102173 
	C271.820435,604.102722 277.430328,604.102295 284.040894,604.102295 
	C284.040894,580.311096 284.040894,557.202393 284.040894,534.093628 
	C284.528473,533.948914 285.016052,533.804260 285.503632,533.659546 
	C308.360138,556.250366 331.216614,578.841248 353.479614,600.845459 
	C353.479614,559.257446 353.479614,516.855103 353.479614,474.351746 
	C344.760254,474.351746 336.503815,474.351746 327.777893,474.351746 
	C327.777893,498.578278 327.777893,522.537231 327.777893,547.689148 
	C304.156158,524.207520 281.368195,501.554810 258.580261,478.902069 
	C258.204468,479.123993 257.828644,479.345917 257.452850,479.567841 
	C257.452850,519.345581 257.452850,559.123352 257.452850,598.901123 
	C257.125885,598.977417 256.798920,599.053711 256.471954,599.129944 
	C236.738876,556.751648 217.005798,514.373352 197.027786,471.469025 
	C181.438675,504.623688 166.202179,537.028442 150.734650,570.152527 
M547.410583,599.228516 
	C547.410583,557.647827 547.410583,516.067139 547.410583,474.479706 
	C538.358826,474.479706 529.932861,474.479706 521.083252,474.479706 
	C521.083252,492.657928 521.083252,510.549591 521.083252,528.437622 
	C508.221893,528.437622 495.791870,528.437622 482.932953,528.437622 
	C482.932953,510.266022 482.932953,492.363342 482.932953,474.277618 
	C475.680939,474.277618 468.846649,474.533691 462.043701,474.182373 
	C457.907318,473.968781 457.075806,475.477417 457.095398,479.307739 
	C457.283020,515.967651 457.287903,552.628479 457.342743,589.289062 
	C457.350098,594.208618 457.343750,599.128174 457.343750,603.761597 
	C466.470306,603.761597 474.696869,603.761597 483.476532,603.761597 
	C483.476532,586.739807 483.476532,570.171326 483.476532,553.431274 
	C496.287689,553.431274 508.526367,553.431274 521.492554,553.431274 
	C521.492554,570.416382 521.492554,587.154358 521.492554,604.119507 
	C529.369202,604.119507 536.527527,603.928650 543.667786,604.203979 
	C546.989441,604.332031 547.768066,602.996948 547.410583,599.228516 
M387.601349,542.932556 
	C394.664856,545.331482 401.809448,547.519348 408.767456,550.192810 
	C414.871552,552.538086 419.229004,556.896973 419.994751,563.662292 
	C421.266205,574.895142 411.378387,581.628906 399.280090,577.546875 
	C394.801666,576.035828 390.759338,573.232300 386.668640,571.096802 
	C381.285980,577.811829 375.805481,584.648926 370.174683,591.673523 
	C381.186462,601.045776 393.408234,606.765137 407.956818,606.518982 
	C438.210846,606.007141 457.923706,575.682556 445.722321,548.256348 
	C439.046814,533.251160 426.475098,525.461670 411.275452,521.091431 
	C407.293549,519.946533 403.246094,518.840942 399.491638,517.137756 
	C393.884521,514.594177 391.579926,510.447784 392.777557,506.300171 
	C394.102997,501.709930 398.921631,498.653351 404.802338,499.873596 
	C408.985870,500.741669 412.856934,503.115326 416.934692,504.845612 
	C423.236420,499.264923 429.931580,493.335846 437.363495,486.754333 
	C432.235229,483.509705 427.620361,479.891968 422.450470,477.448395 
	C406.272400,469.801605 386.891541,473.353882 375.470093,485.586060 
	C357.796967,504.513672 362.988342,530.458984 387.601349,542.932556 
M109.874062,599.429565 
	C129.153320,557.870422 148.432571,516.311340 168.006256,474.117554 
	C158.724319,474.117554 150.725800,474.371033 142.755096,474.010223 
	C138.792786,473.830841 136.856628,475.150330 135.301468,478.728119 
	C129.009369,493.203705 122.441498,507.559784 115.933784,521.941162 
	C113.012268,528.397400 109.992844,534.809448 106.660110,542.014954 
	C105.470863,539.928650 104.571037,538.589905 103.904037,537.143677 
	C94.785759,517.373657 85.736427,497.571625 76.533386,477.841248 
	C75.824249,476.320862 74.125351,474.229706 72.823967,474.184021 
	C63.738811,473.864929 54.637169,474.015228 44.763477,474.015228 
	C65.148552,518.567932 85.227516,562.451538 105.784035,607.378967 
	C107.466812,604.128479 108.506874,602.119446 109.874062,599.429565 
M800.500488,474.099152 
	C794.396790,474.099152 788.293030,474.099152 782.078125,474.099152 
	C782.078125,517.679688 782.078125,560.737549 782.078125,603.735901 
	C790.749756,603.735901 799.117615,603.735901 807.968872,603.735901 
	C807.968872,588.593079 807.968872,573.868286 807.968872,558.765137 
	C823.353210,558.765137 838.247192,558.765137 853.125854,558.765137 
	C853.125854,550.658142 853.125854,542.947754 853.125854,534.880249 
	C837.813171,534.880249 822.892517,534.880249 808.067627,534.880249 
	C808.067627,522.776062 808.067627,511.043030 808.067627,498.881592 
	C824.263611,498.881592 840.172791,498.881592 855.963257,498.881592 
	C855.963257,490.397797 855.963257,482.362885 855.963257,474.100922 
	C837.434265,474.100922 819.467285,474.100922 800.500488,474.099152 
M878.351685,508.206329 
	C884.336670,519.132263 890.413025,530.009949 896.225952,541.026672 
	C897.326355,543.112122 897.807373,545.742920 897.844482,548.133484 
	C898.012207,558.931091 897.917725,569.732849 897.917725,580.182129 
	C901.336182,580.182129 904.280945,580.182129 907.384155,580.182129 
	C907.562134,577.929443 907.714111,576.006836 907.870911,574.022156 
	C911.520264,574.022156 914.904419,574.022156 918.368835,574.022156 
	C918.538879,576.141357 918.683472,577.943726 918.845215,579.959656 
	C921.560913,579.959656 924.144104,579.959656 927.162964,579.959656 
	C927.162964,569.680664 927.066223,559.394592 927.240479,549.113220 
	C927.277588,546.922485 927.893555,544.529297 928.932068,542.600464 
	C940.040955,521.967102 951.295593,501.412292 962.486572,480.823059 
	C963.556458,478.854675 964.466919,476.799591 965.812317,474.046021 
	C956.398804,474.046021 947.952454,474.210846 939.518433,473.961426 
	C936.333862,473.867249 934.942993,475.060059 933.594482,477.802643 
	C928.173889,488.826538 922.459290,499.706116 916.827271,510.625610 
	C915.970459,512.286804 914.976562,513.877258 913.476379,516.494263 
	C906.167664,502.845795 899.467712,490.238434 892.634399,477.703735 
	C891.852295,476.269135 890.354797,474.220490 889.138794,474.185150 
	C879.274841,473.898224 869.398926,474.023956 858.771790,474.023956 
	C865.471680,485.703400 871.739502,496.629700 878.351685,508.206329 
M77.500000,644.014954 
	C69.672516,644.025330 61.844944,644.016296 54.017582,644.052612 
	C48.363678,644.078796 44.919563,646.807190 45.025906,651.098633 
	C45.130810,655.331665 48.755421,658.454346 54.001369,658.466309 
	C78.981941,658.523132 103.963867,658.604126 128.941483,658.330078 
	C131.282242,658.304321 134.424942,656.410217 135.760574,654.420471 
	C139.160355,649.355774 135.078033,644.000732 127.962906,643.972595 
	C111.475586,643.907410 94.987671,643.991211 77.500000,644.014954 
M881.659058,658.624573 
	C903.776428,658.597717 925.893799,658.567993 948.011169,658.545837 
	C954.016113,658.539856 957.701233,655.589844 957.591370,650.847473 
	C957.486572,646.319153 954.195374,643.947998 947.987976,643.952393 
	C925.870361,643.968262 903.752686,643.988831 881.635071,644.011169 
	C879.639709,644.013184 877.625977,643.874573 875.652710,644.091553 
	C871.539185,644.543884 868.716980,646.702820 868.556396,651.037720 
	C868.404541,655.138000 871.022705,657.462585 874.764771,658.333679 
	C876.667847,658.776794 878.727173,658.549011 881.659058,658.624573 
M797.500000,643.967773 
	C789.518921,643.970520 781.537903,643.971680 773.556824,643.976440 
	C766.851562,643.980469 763.112976,646.566650 763.074341,651.222107 
	C763.036438,655.786438 766.896606,658.466614 773.596313,658.527344 
	C773.762573,658.528870 773.928833,658.527466 774.095093,658.527161 
	C796.541687,658.490051 818.988342,658.460571 841.434937,658.410767 
	C847.342529,658.397705 850.720947,655.772034 850.868042,651.165039 
	C851.002625,646.947632 847.152832,643.947754 841.398132,643.939209 
	C827.098816,643.917847 812.799377,643.954346 797.500000,643.967773 
M159.797302,658.054138 
	C160.938995,658.263855 162.080765,658.656677 163.222382,658.656250 
	C184.022858,658.649048 204.823578,658.637268 225.623611,658.517578 
	C230.338257,658.490417 233.873856,655.073853 233.953033,650.947388 
	C234.028290,647.025452 230.396652,643.948486 225.272446,643.939331 
	C204.638199,643.902344 184.003799,643.955994 163.369446,643.976440 
	C159.682419,643.980103 156.206772,644.581482 154.977844,648.702820 
	C153.768250,652.759338 155.218613,655.872742 159.797302,658.054138 
M475.452423,669.165039 
	C476.195953,668.045227 477.523865,666.954468 477.581268,665.800537 
	C477.822266,660.957458 477.682983,656.095337 477.682983,650.502258 
	C482.380646,656.089661 486.623016,661.348450 491.132599,666.367126 
	C492.451874,667.835327 494.531494,668.620239 496.895142,670.119629 
	C496.895142,659.988403 496.895142,651.216370 496.895142,642.074402 
	C495.248566,642.237488 493.900909,642.370972 492.215332,642.537964 
	C492.215332,648.179260 492.215332,653.409607 492.215332,659.537781 
	C487.169922,653.963928 482.851685,648.986389 478.267609,644.267151 
	C477.043610,643.007141 475.006409,642.537109 472.624878,641.345215 
	C472.624878,650.688782 472.563446,658.676514 472.715027,666.660278 
	C472.731079,667.507446 473.995667,668.330994 475.452423,669.165039 
M718.422729,662.362671 
	C718.422729,664.486755 718.422729,666.610779 718.422729,668.847717 
	C725.849670,668.847717 732.765015,668.847717 739.970093,668.847717 
	C739.970093,667.156555 739.970093,665.752014 739.970093,664.052979 
	C734.433472,664.052979 729.016724,664.052979 723.547546,664.052979 
	C723.547546,661.553894 723.547546,659.353394 723.547546,656.819702 
	C728.457397,656.819702 733.067444,656.819702 737.813354,656.819702 
	C737.813354,655.031494 737.813354,653.591492 737.813354,651.818237 
	C733.055786,651.818237 728.448120,651.818237 723.645752,651.818237 
	C723.645752,650.117249 723.645752,648.750793 723.645752,647.099976 
	C728.887756,647.099976 733.843872,647.099976 739.104065,647.099976 
	C739.222778,645.302856 739.323730,643.773865 739.421692,642.291382 
	C732.320312,642.291382 725.720886,642.291382 718.424744,642.291382 
	C718.424744,648.822632 718.424744,655.107300 718.422729,662.362671 
M691.051819,664.585022 
	C694.432678,669.310974 694.432678,669.310974 699.484985,668.123352 
	C696.781738,664.226562 694.169312,660.460693 691.420288,656.497925 
	C696.148438,655.367432 697.960266,652.478088 697.217590,648.029236 
	C696.462036,643.503662 693.082764,642.306213 689.183044,642.127197 
	C685.540833,641.960083 681.884949,642.091492 677.920776,642.091492 
	C677.920776,651.143799 677.920776,659.872009 677.920776,668.912842 
	C679.559875,668.809021 680.958069,668.720459 682.453247,668.625793 
	C682.658508,664.287354 682.846863,660.305298 683.035278,656.323242 
	C683.549683,656.160339 684.064087,655.997437 684.578491,655.834534 
	C686.604675,658.540710 688.630920,661.246826 691.051819,664.585022 
M335.672241,660.461243 
	C338.728271,667.546997 344.170532,670.497559 351.053802,668.800354 
	C357.109436,667.307312 360.837250,661.725159 360.414215,654.783936 
	C359.989624,647.818054 355.223053,642.619873 348.741882,642.054871 
	C342.701996,641.528259 337.041016,645.493652 335.535339,651.836975 
	C334.946381,654.318176 335.441620,657.056763 335.672241,660.461243 
M637.568176,643.818176 
	C636.463013,644.804016 635.177551,645.649475 634.282593,646.798950 
	C629.301819,653.195801 630.663574,662.882812 637.041870,667.048096 
	C643.483765,671.254883 651.511414,669.454346 655.114685,662.994385 
	C658.081299,657.675842 657.428040,650.695801 653.546997,646.242920 
	C649.666870,641.791077 644.718689,640.862732 637.568176,643.818176 
M556.597168,667.259705 
	C560.777283,667.831848 565.082214,669.313965 569.108093,668.761780 
	C575.066772,667.944336 577.444946,660.472961 573.325195,656.544128 
	C571.520752,654.823303 568.797668,654.024109 566.425842,652.952148 
	C564.224976,651.957458 561.936401,651.156982 559.686523,650.270935 
	C559.837158,649.577087 559.987732,648.883179 560.138367,648.189331 
	C563.443970,648.189331 566.749573,648.189331 570.436707,648.189331 
	C570.935364,647.291382 571.634888,646.031860 573.119324,643.358826 
	C568.421326,643.010681 564.334900,641.738159 560.966553,642.782288 
	C558.518860,643.541016 556.008728,647.121826 555.351318,649.879456 
	C554.499146,653.454224 557.345825,655.960144 560.939575,656.932129 
	C562.698669,657.407837 564.685120,657.315430 566.266846,658.093689 
	C567.686462,658.792053 568.692810,660.330505 569.881470,661.498352 
	C568.244324,662.609863 566.540405,664.707886 564.985718,664.602539 
	C562.632629,664.443054 560.383484,662.749695 557.039795,661.231018 
	C556.667786,663.205566 556.306458,665.123474 556.597168,667.259705 
M269.785187,647.362183 
	C271.351898,648.174683 272.918610,648.987244 274.543671,649.830017 
	C275.594818,648.543945 276.506195,647.428833 277.395325,646.341003 
	C271.706635,640.680115 263.768768,640.429077 258.577850,645.524719 
	C253.459732,650.548828 253.519119,660.260681 258.699432,665.402893 
	C264.208344,670.871277 272.114105,670.493774 278.291321,664.232544 
	C276.860626,663.122803 275.461823,662.037720 274.014465,660.914978 
	C270.686493,663.566345 267.297485,665.507080 263.552032,662.497986 
	C260.421600,659.982910 259.415222,656.535828 260.674408,652.640747 
	C261.977356,648.610229 264.857452,646.841614 269.785187,647.362183 
M507.962311,443.399597 
	C505.875122,444.330292 503.085205,446.569183 501.853363,445.907501 
	C499.591827,444.692749 498.248474,441.768646 496.214294,439.162445 
	C492.855286,440.687469 491.666382,443.895660 492.736572,448.088776 
	C493.972198,452.929871 498.810028,456.487122 503.863312,456.423340 
	C508.899811,456.359741 514.146057,452.492676 514.988098,448.029449 
	C515.851501,443.453094 514.048889,440.339478 509.389984,438.754181 
	C508.966370,440.141327 508.586761,441.384369 507.962311,443.399597 
M444.624603,654.541138 
	C444.624603,652.110596 444.624603,649.680115 444.624603,647.163513 
	C446.844025,647.023438 448.422607,646.923767 450.038635,646.821777 
	C450.038635,645.055481 450.038635,643.638306 450.038635,642.295532 
	C444.202576,642.295532 438.639069,642.295532 433.083282,642.295532 
	C433.154541,646.458313 433.154541,646.458313 439.792664,647.545471 
	C439.792664,652.844177 439.792664,658.242493 439.792664,663.989075 
	C437.844696,664.083252 435.600555,664.191711 433.119263,664.311707 
	C433.119263,665.970398 433.119263,667.353027 433.119263,668.785828 
	C438.999817,668.785828 444.715302,668.785828 450.774872,668.785828 
	C450.579468,667.052490 450.423798,665.671753 450.278534,664.383179 
	C448.087341,664.155518 446.328430,663.972778 444.624847,663.795776 
	C444.624847,660.805603 444.624847,658.164856 444.624603,654.541138 
M516.664978,641.996155 
	C511.908417,642.251709 515.419434,644.692566 515.928223,645.675415 
	C519.595764,652.760681 525.620544,658.971741 523.773499,668.004150 
	C523.722473,668.253967 524.027649,668.576721 524.310974,669.165039 
	C525.601013,669.067078 527.002075,668.960693 529.108704,668.800659 
	C525.633118,657.803284 534.157166,651.171997 538.028503,642.546387 
	C529.373352,640.794983 530.160767,649.598511 525.655212,652.768005 
	C524.278442,650.361023 523.091919,647.851379 521.490356,645.642822 
	C520.451904,644.210693 518.807373,643.218079 516.664978,641.996155 
M604.809021,660.428345 
	C604.809021,656.011108 604.809021,651.593872 604.809021,647.170166 
	C607.651245,647.009766 609.883667,646.883728 612.430298,646.739990 
	C612.252441,644.939880 612.114502,643.543579 612.002380,642.408875 
	C605.022278,642.408875 598.459534,642.408875 591.472412,642.408875 
	C591.616150,644.129944 591.729858,645.491272 591.838928,646.796875 
	C594.741516,646.947937 597.158203,647.073669 599.961548,647.219543 
	C599.961548,654.667664 599.961548,661.739441 599.961548,669.146179 
	C601.789978,668.963257 603.160645,668.826172 604.803894,668.661743 
	C604.803894,665.997620 604.803894,663.697327 604.809021,660.428345 
M396.237274,647.068420 
	C397.635864,645.903259 399.034485,644.738098 400.433075,643.572937 
	C400.112091,643.088257 399.791107,642.603577 399.470123,642.118896 
	C393.363739,642.118896 387.254608,642.028442 381.153900,642.214905 
	C380.223328,642.243408 379.331909,643.553345 378.422394,644.270569 
	C379.239258,645.142578 379.921387,646.514465 380.902039,646.778748 
	C382.740479,647.274170 384.751709,647.128540 387.063141,647.272766 
	C387.063141,654.553528 387.063141,661.612732 387.063141,668.706421 
	C388.978302,668.706421 390.494324,668.706421 392.156860,668.706421 
	C392.156860,662.391785 392.257629,656.427673 392.108643,650.469727 
	C392.046600,647.988831 392.614990,646.619263 396.237274,647.068420 
M407.244904,653.016296 
	C403.967743,653.016296 400.690613,653.016296 397.278900,653.016296 
	C397.278900,654.686829 397.131500,656.748169 397.300568,656.774475 
	C401.099274,657.365234 404.932739,657.732361 409.015015,658.169006 
	C409.015015,661.819946 409.015015,665.413147 409.015015,669.219543 
	C410.734436,669.139587 412.177673,669.072571 413.654602,669.003906 
	C413.654602,659.867004 413.654602,651.011719 413.654602,641.989868 
	C411.965576,641.989868 410.553253,641.989868 409.247925,641.989868 
	C408.872711,645.800293 408.523590,649.345642 407.244904,653.016296 
M299.643341,669.040161 
	C305.086456,669.040161 310.529572,669.040161 316.342041,669.040161 
	C316.238525,667.150513 316.161926,665.751709 316.071686,664.104187 
	C311.236938,664.104187 306.796112,664.104187 301.848328,664.104187 
	C301.848328,657.892090 301.784424,651.939636 301.871918,645.989319 
	C301.925598,642.340149 300.542694,641.183899 296.866669,642.773987 
	C296.866669,650.819641 296.817719,658.794373 296.945374,666.766235 
	C296.957581,667.530945 298.069397,668.278076 299.643341,669.040161 
M702.094238,592.849976 
	C696.132751,595.190979 694.210144,598.559509 696.672729,602.766968 
	C698.689880,606.213318 701.747925,608.195679 705.834900,606.929749 
	C709.658875,605.745178 711.325073,602.584717 710.976868,598.798401 
	C710.538452,594.031311 707.113525,592.652832 702.094238,592.849976 
M554.248718,684.179626 
	C553.370911,683.688782 552.493103,683.197937 551.185303,682.466675 
	C551.060730,685.302002 550.977905,687.187134 550.895020,689.072327 
	C550.272156,689.517578 549.649292,689.962769 549.026428,690.408020 
	C547.454285,687.666565 545.882202,684.925110 544.310120,682.183655 
	C544.003296,682.596558 543.696472,683.009460 543.389648,683.422363 
	C543.389648,687.695312 543.389648,691.968262 543.389648,696.241150 
	C543.829102,696.299500 544.268555,696.357849 544.708008,696.416260 
	C545.111938,694.512451 545.515869,692.608643 545.942322,690.598938 
	C548.614014,692.878235 550.912354,694.839050 554.281311,697.713196 
	C554.281311,692.289001 554.281311,688.673889 554.248718,684.179626 
M484.589630,695.940491 
	C484.866882,693.851807 485.617798,691.651123 485.164642,689.735107 
	C485.005951,689.064209 481.885406,689.093750 479.361450,688.679321 
	C480.803436,690.834778 481.589294,692.009460 482.375153,693.184143 
	C481.821533,693.579346 481.267883,693.974548 480.714264,694.369751 
	C479.742126,692.851074 477.974640,691.349243 477.942047,689.810669 
	C477.829224,684.486267 482.827576,686.828613 486.382141,685.380188 
	C482.589081,682.932434 479.198059,682.458008 476.822876,685.037048 
	C475.247009,686.748169 474.193390,690.279785 474.839233,692.410400 
	C476.071747,696.476562 479.834412,697.248535 484.589630,695.940491 
M445.710907,693.842224 
	C446.671875,694.770203 447.632874,695.698242 448.593872,696.626221 
	C448.954590,696.341064 449.315338,696.055908 449.676056,695.770752 
	C448.151642,692.003357 446.786987,688.154541 444.949982,684.546204 
	C444.633270,683.924072 441.301849,683.845764 441.074219,684.326538 
	C439.304596,688.063965 437.954498,692.000000 436.151611,696.720459 
	C439.904327,695.306885 442.481049,694.336304 445.710907,693.842224 
M579.757690,688.731384 
	C579.757690,691.191895 579.757690,693.652466 579.757690,696.854675 
	C583.267212,696.375977 586.207520,695.974915 589.147827,695.573853 
	C589.070312,695.034729 588.992798,694.495605 588.915283,693.956482 
	C586.928223,693.554932 584.941162,693.153381 582.954102,692.751831 
	C582.981567,692.342224 583.008972,691.932617 583.036377,691.523010 
	C584.780701,690.939270 586.525085,690.355591 589.715210,689.288086 
	C586.445801,688.323059 584.692627,687.805603 582.939392,687.288086 
	C582.985779,686.992004 583.032104,686.695923 583.078430,686.399780 
	C584.974426,686.088806 586.870361,685.777771 588.766357,685.466797 
	C588.747925,685.088074 588.729492,684.709412 588.711060,684.330688 
	C585.896362,684.330688 583.081665,684.330688 579.750549,684.330688 
	C579.750549,685.333801 579.750549,686.607727 579.757690,688.731384 
M409.439362,686.796082 
	C412.681580,685.458984 410.602142,684.260620 409.095306,684.063232 
	C407.497345,683.853943 404.482330,684.394775 404.330383,685.094910 
	C403.867401,687.228577 404.485657,689.596802 404.723236,692.337463 
	C404.728180,692.334473 403.845001,692.858704 402.632721,693.578247 
	C405.496857,696.215637 408.734406,698.144592 411.103668,695.099426 
	C414.773041,690.383240 408.801300,689.128662 405.901855,686.026489 
	C407.513672,686.274231 408.126068,686.368347 409.439362,686.796082 
M511.329315,685.800110 
	C511.221588,689.015381 511.113831,692.230713 510.994080,695.804443 
	C512.100159,695.804443 514.599915,695.804443 517.911255,695.804443 
	C513.174072,691.471130 514.112610,687.591492 517.578674,683.168152 
	C514.909973,683.168152 512.971802,683.096008 511.056366,683.271606 
	C510.848267,683.290771 510.771393,684.740845 511.329315,685.800110 
z"/>
<path fill="#040404" opacity="1.000000" stroke="none" 
	d="
M512.921692,418.826141 
	C522.224182,418.729858 531.526611,418.550232 540.829102,418.552277 
	C574.985901,418.559784 609.142639,418.629272 643.299438,418.658966 
	C643.895752,418.659485 644.492188,418.453644 646.601868,418.066162 
	C639.338257,414.960876 633.350281,412.405823 627.366150,409.841888 
	C586.267944,392.233246 545.185120,374.588287 504.028748,357.116577 
	C502.009094,356.259186 499.016968,356.131500 497.035248,356.974579 
	C449.791290,377.074036 402.623779,397.353149 355.451630,418.288330 
	C402.707031,418.288330 449.962433,418.288330 497.514008,418.288330 
	C497.514008,423.814453 497.514008,428.692352 497.514008,433.941772 
	C437.335663,433.941772 377.428375,433.941772 317.516357,433.941772 
	C315.083893,415.654724 319.256958,406.353180 335.336884,399.895477 
	C371.563660,385.346771 407.545380,370.188568 443.670013,355.383789 
	C449.573578,352.964386 454.378845,349.438416 457.837372,344.068909 
	C459.098877,342.110413 460.616486,340.308319 461.783630,338.299133 
	C468.130066,327.373749 477.629089,321.566101 490.160553,320.562073 
	C491.626831,320.444611 493.084473,320.219757 495.358246,319.947418 
	C491.955017,309.563080 497.815887,304.574249 506.065277,300.327515 
	C511.281006,297.642456 513.207642,291.617645 512.014099,286.613678 
	C510.726776,281.216309 505.421875,276.380615 500.161346,275.809174 
	C493.902161,275.129272 488.984711,277.604767 486.059052,283.032867 
	C485.275848,284.485962 484.591797,286.039093 484.161407,287.627380 
	C482.604950,293.371063 479.418823,296.475128 475.738495,295.639160 
	C471.575073,294.693420 468.813629,289.675507 469.591095,284.468506 
	C472.361572,265.913971 491.442596,254.947571 509.190002,261.941620 
	C520.157532,266.263824 526.712280,274.413635 527.989380,286.255859 
	C529.344055,298.817383 523.254028,307.602875 513.011536,313.993378 
	C510.823242,315.358673 507.768066,315.961365 509.242798,320.142029 
	C511.522339,320.523834 514.129761,320.811066 516.663147,321.411041 
	C526.900574,323.835449 534.972107,329.522583 540.213318,338.588684 
	C545.653076,347.998260 553.549744,353.818207 563.494873,357.854675 
	C598.464172,372.047852 633.271240,386.640350 668.177124,400.990540 
	C681.907837,406.635406 687.349121,417.938263 683.721802,434.013977 
	C625.987122,434.013977 568.235962,434.013977 509.968811,434.013977 
	C509.968811,432.402954 509.968811,431.137115 510.423645,429.357971 
	C511.559540,425.505188 512.240601,422.165649 512.921692,418.826141 
z"/>
<path fill="#040404" opacity="1.000000" stroke="none" 
	d="
M752.468628,553.512146 
	C739.555359,560.427490 726.058044,563.444153 711.171875,563.167725 
	C711.171875,569.387695 711.171875,575.421814 711.171875,580.665161 
	C706.353760,580.385559 702.158386,579.932617 697.968323,579.977356 
	C695.442444,580.004272 693.841370,581.338989 693.942688,584.418884 
	C694.149902,590.718628 694.004822,597.029846 694.004822,603.645142 
	C678.333069,603.645142 663.781616,603.645142 648.742065,603.645142 
	C651.973816,597.463074 662.005493,596.155945 660.337952,585.964111 
	C651.368164,594.811646 641.066162,599.414978 629.804077,602.292664 
	C598.149597,610.381165 561.800415,588.327393 555.797729,556.221802 
	C553.174988,542.193604 553.198425,527.560791 557.716187,513.691589 
	C564.785278,491.990143 587.585266,475.440613 610.559143,474.001282 
	C628.197021,472.896240 643.775696,477.619141 657.392151,488.865936 
	C658.024780,489.388428 658.728394,489.826691 659.414490,490.280853 
	C659.539185,490.363434 659.739136,490.332306 659.904358,490.353668 
	C660.484558,487.071381 659.962524,486.024139 655.945435,481.909515 
	C653.688232,479.597565 651.511230,477.207336 648.962463,474.495209 
	C650.317688,474.410309 651.399780,474.285522 652.482056,474.283112 
	C674.639404,474.234161 696.807312,473.790070 718.948914,474.362579 
	C727.809753,474.591675 736.924500,476.073639 745.375488,478.729614 
	C761.916565,483.928131 771.342224,496.006317 772.634521,513.279053 
	C773.901306,530.211426 768.416260,544.443787 752.468628,553.512146 
M587.175110,562.253967 
	C597.746216,575.133911 611.364014,578.847290 627.056763,574.676270 
	C641.452393,570.850037 651.256470,558.300842 652.602234,542.311523 
	C653.848145,527.508728 648.304199,515.378479 635.890381,507.167389 
	C623.454468,498.941620 610.332458,498.713043 597.171143,505.976440 
	C581.974670,514.362976 571.765625,541.140076 587.175110,562.253967 
M711.173889,516.500244 
	C711.173889,522.581055 711.173889,528.661865 711.173889,534.914429 
	C717.262512,534.914429 722.756470,535.283264 728.182800,534.833984 
	C738.039612,534.017822 745.534790,526.931763 746.129700,518.476685 
	C746.804626,508.883820 741.040283,500.494446 730.988098,498.648376 
	C724.668396,497.487762 717.962158,498.432098 711.173828,498.432098 
	C711.173828,504.241577 711.173828,509.871368 711.173889,516.500244 
M678.728882,548.925476 
	C676.529480,562.380249 672.104919,574.825806 661.352539,585.060669 
	C669.835632,585.060669 677.251099,585.060669 684.868835,585.060669 
	C684.868835,554.990356 684.868835,525.116333 684.868835,495.299408 
	C677.852417,495.299408 671.165405,495.299408 663.675232,495.299408 
	C677.444397,510.850220 680.514221,528.785645 678.728882,548.925476 
z"/>
<path fill="#030303" opacity="1.000000" stroke="none" 
	d="
M150.850159,569.792847 
	C166.202179,537.028442 181.438675,504.623688 197.027786,471.469025 
	C217.005798,514.373352 236.738876,556.751648 256.471954,599.129944 
	C256.798920,599.053711 257.125885,598.977417 257.452850,598.901123 
	C257.452850,559.123352 257.452850,519.345581 257.452850,479.567841 
	C257.828644,479.345917 258.204468,479.123993 258.580261,478.902069 
	C281.368195,501.554810 304.156158,524.207520 327.777893,547.689148 
	C327.777893,522.537231 327.777893,498.578278 327.777893,474.351746 
	C336.503815,474.351746 344.760254,474.351746 353.479614,474.351746 
	C353.479614,516.855103 353.479614,559.257446 353.479614,600.845459 
	C331.216614,578.841248 308.360138,556.250366 285.503632,533.659546 
	C285.016052,533.804260 284.528473,533.948914 284.040894,534.093628 
	C284.040894,557.202393 284.040894,580.311096 284.040894,604.102295 
	C277.430328,604.102295 271.820435,604.102722 266.210541,604.102173 
	C255.215546,604.101074 244.219299,604.009155 233.226471,604.162842 
	C230.538712,604.200439 229.187637,603.475952 228.086334,600.891052 
	C225.745789,595.397522 223.067871,590.025269 220.149796,584.815308 
	C219.389282,583.457520 217.248489,582.090759 215.720901,582.067078 
	C202.070267,581.855408 188.414978,581.943665 174.306519,581.943665 
	C171.347610,588.265686 168.447144,594.757080 165.231888,601.088623 
	C164.574539,602.382996 162.759415,603.879944 161.438065,603.918640 
	C152.793137,604.171326 144.137253,604.048645 134.552673,604.048645 
	C140.103271,592.421875 145.418961,581.287231 150.850159,569.792847 
M189.631744,550.079163 
	C187.308548,554.947266 184.985352,559.815369 182.615051,564.782227 
	C192.411804,564.782227 201.627640,564.782227 211.376984,564.782227 
	C208.882996,559.364258 206.651855,554.392761 204.313599,549.472229 
	C201.931061,544.458557 199.443161,539.494995 196.748199,533.992493 
	C194.230743,539.657593 192.071960,544.515503 189.631744,550.079163 
z"/>
<path fill="#050505" opacity="1.000000" stroke="none" 
	d="
M547.409302,599.695007 
	C547.768066,602.996948 546.989441,604.332031 543.667786,604.203979 
	C536.527527,603.928650 529.369202,604.119507 521.492554,604.119507 
	C521.492554,587.154358 521.492554,570.416382 521.492554,553.431274 
	C508.526367,553.431274 496.287689,553.431274 483.476532,553.431274 
	C483.476532,570.171326 483.476532,586.739807 483.476532,603.761597 
	C474.696869,603.761597 466.470306,603.761597 457.343750,603.761597 
	C457.343750,599.128174 457.350098,594.208618 457.342743,589.289062 
	C457.287903,552.628479 457.283020,515.967651 457.095398,479.307739 
	C457.075806,475.477417 457.907318,473.968781 462.043701,474.182373 
	C468.846649,474.533691 475.680939,474.277618 482.932953,474.277618 
	C482.932953,492.363342 482.932953,510.266022 482.932953,528.437622 
	C495.791870,528.437622 508.221893,528.437622 521.083252,528.437622 
	C521.083252,510.549591 521.083252,492.657928 521.083252,474.479706 
	C529.932861,474.479706 538.358826,474.479706 547.410583,474.479706 
	C547.410583,516.067139 547.410583,557.647827 547.409302,599.695007 
z"/>
<path fill="#030304" opacity="1.000000" stroke="none" 
	d="
M387.246307,542.799561 
	C362.988342,530.458984 357.796967,504.513672 375.470093,485.586060 
	C386.891541,473.353882 406.272400,469.801605 422.450470,477.448395 
	C427.620361,479.891968 432.235229,483.509705 437.363495,486.754333 
	C429.931580,493.335846 423.236420,499.264923 416.934692,504.845612 
	C412.856934,503.115326 408.985870,500.741669 404.802338,499.873596 
	C398.921631,498.653351 394.102997,501.709930 392.777557,506.300171 
	C391.579926,510.447784 393.884521,514.594177 399.491638,517.137756 
	C403.246094,518.840942 407.293549,519.946533 411.275452,521.091431 
	C426.475098,525.461670 439.046814,533.251160 445.722321,548.256348 
	C457.923706,575.682556 438.210846,606.007141 407.956818,606.518982 
	C393.408234,606.765137 381.186462,601.045776 370.174683,591.673523 
	C375.805481,584.648926 381.285980,577.811829 386.668640,571.096802 
	C390.759338,573.232300 394.801666,576.035828 399.280090,577.546875 
	C411.378387,581.628906 421.266205,574.895142 419.994751,563.662292 
	C419.229004,556.896973 414.871552,552.538086 408.767456,550.192810 
	C401.809448,547.519348 394.664856,545.331482 387.246307,542.799561 
z"/>
<path fill="#030403" opacity="1.000000" stroke="none" 
	d="
M109.710495,599.770020 
	C108.506874,602.119446 107.466812,604.128479 105.784035,607.378967 
	C85.227516,562.451538 65.148552,518.567932 44.763477,474.015228 
	C54.637169,474.015228 63.738811,473.864929 72.823967,474.184021 
	C74.125351,474.229706 75.824249,476.320862 76.533386,477.841248 
	C85.736427,497.571625 94.785759,517.373657 103.904037,537.143677 
	C104.571037,538.589905 105.470863,539.928650 106.660110,542.014954 
	C109.992844,534.809448 113.012268,528.397400 115.933784,521.941162 
	C122.441498,507.559784 129.009369,493.203705 135.301468,478.728119 
	C136.856628,475.150330 138.792786,473.830841 142.755096,474.010223 
	C150.725800,474.371033 158.724319,474.117554 168.006256,474.117554 
	C148.432571,516.311340 129.153320,557.870422 109.710495,599.770020 
z"/>
<path fill="#040404" opacity="1.000000" stroke="none" 
	d="
M801.000427,474.100037 
	C819.467285,474.100922 837.434265,474.100922 855.963257,474.100922 
	C855.963257,482.362885 855.963257,490.397797 855.963257,498.881592 
	C840.172791,498.881592 824.263611,498.881592 808.067627,498.881592 
	C808.067627,511.043030 808.067627,522.776062 808.067627,534.880249 
	C822.892517,534.880249 837.813171,534.880249 853.125854,534.880249 
	C853.125854,542.947754 853.125854,550.658142 853.125854,558.765137 
	C838.247192,558.765137 823.353210,558.765137 807.968872,558.765137 
	C807.968872,573.868286 807.968872,588.593079 807.968872,603.735901 
	C799.117615,603.735901 790.749756,603.735901 782.078125,603.735901 
	C782.078125,560.737549 782.078125,517.679688 782.078125,474.099152 
	C788.293030,474.099152 794.396790,474.099152 801.000427,474.100037 
z"/>
<path fill="#040404" opacity="1.000000" stroke="none" 
	d="
M878.179504,507.881165 
	C871.739502,496.629700 865.471680,485.703400 858.771790,474.023956 
	C869.398926,474.023956 879.274841,473.898224 889.138794,474.185150 
	C890.354797,474.220490 891.852295,476.269135 892.634399,477.703735 
	C899.467712,490.238434 906.167664,502.845795 913.476379,516.494263 
	C914.976562,513.877258 915.970459,512.286804 916.827271,510.625610 
	C922.459290,499.706116 928.173889,488.826538 933.594482,477.802643 
	C934.942993,475.060059 936.333862,473.867249 939.518433,473.961426 
	C947.952454,474.210846 956.398804,474.046021 965.812317,474.046021 
	C964.466919,476.799591 963.556458,478.854675 962.486572,480.823059 
	C951.295593,501.412292 940.040955,521.967102 928.932068,542.600464 
	C927.893555,544.529297 927.277588,546.922485 927.240479,549.113220 
	C927.066223,559.394592 927.162964,569.680664 927.162964,579.959656 
	C924.144104,579.959656 921.560913,579.959656 918.845215,579.959656 
	C918.683472,577.943726 918.538879,576.141357 918.368835,574.022156 
	C914.904419,574.022156 911.520264,574.022156 907.870911,574.022156 
	C907.714111,576.006836 907.562134,577.929443 907.384155,580.182129 
	C904.280945,580.182129 901.336182,580.182129 897.917725,580.182129 
	C897.917725,569.732849 898.012207,558.931091 897.844482,548.133484 
	C897.807373,545.742920 897.326355,543.112122 896.225952,541.026672 
	C890.413025,530.009949 884.336670,519.132263 878.179504,507.881165 
z"/>
<path fill="#080808" opacity="1.000000" stroke="none" 
	d="
M78.000000,644.014771 
	C94.987671,643.991211 111.475586,643.907410 127.962906,643.972595 
	C135.078033,644.000732 139.160355,649.355774 135.760574,654.420471 
	C134.424942,656.410217 131.282242,658.304321 128.941483,658.330078 
	C103.963867,658.604126 78.981941,658.523132 54.001369,658.466309 
	C48.755421,658.454346 45.130810,655.331665 45.025906,651.098633 
	C44.919563,646.807190 48.363678,644.078796 54.017582,644.052612 
	C61.844944,644.016296 69.672516,644.025330 78.000000,644.014771 
z"/>
<path fill="#0A0A0A" opacity="1.000000" stroke="none" 
	d="
M881.187439,658.624573 
	C878.727173,658.549011 876.667847,658.776794 874.764771,658.333679 
	C871.022705,657.462585 868.404541,655.138000 868.556396,651.037720 
	C868.716980,646.702820 871.539185,644.543884 875.652710,644.091553 
	C877.625977,643.874573 879.639709,644.013184 881.635071,644.011169 
	C903.752686,643.988831 925.870361,643.968262 947.987976,643.952393 
	C954.195374,643.947998 957.486572,646.319153 957.591370,650.847473 
	C957.701233,655.589844 954.016113,658.539856 948.011169,658.545837 
	C925.893799,658.567993 903.776428,658.597717 881.187439,658.624573 
z"/>
<path fill="#060606" opacity="1.000000" stroke="none" 
	d="
M798.000000,643.967651 
	C812.799377,643.954346 827.098816,643.917847 841.398132,643.939209 
	C847.152832,643.947754 851.002625,646.947632 850.868042,651.165039 
	C850.720947,655.772034 847.342529,658.397705 841.434937,658.410767 
	C818.988342,658.460571 796.541687,658.490051 774.095093,658.527161 
	C773.928833,658.527466 773.762573,658.528870 773.596313,658.527344 
	C766.896606,658.466614 763.036438,655.786438 763.074341,651.222107 
	C763.112976,646.566650 766.851562,643.980469 773.556824,643.976440 
	C781.537903,643.971680 789.518921,643.970520 798.000000,643.967651 
z"/>
<path fill="#0A0A0A" opacity="1.000000" stroke="none" 
	d="
M159.418182,657.931274 
	C155.218613,655.872742 153.768250,652.759338 154.977844,648.702820 
	C156.206772,644.581482 159.682419,643.980103 163.369446,643.976440 
	C184.003799,643.955994 204.638199,643.902344 225.272446,643.939331 
	C230.396652,643.948486 234.028290,647.025452 233.953033,650.947388 
	C233.873856,655.073853 230.338257,658.490417 225.623611,658.517578 
	C204.823578,658.637268 184.022858,658.649048 163.222382,658.656250 
	C162.080765,658.656677 160.938995,658.263855 159.418182,657.931274 
z"/>
<path fill="#101010" opacity="1.000000" stroke="none" 
	d="
M475.066772,669.165283 
	C473.995667,668.330994 472.731079,667.507446 472.715027,666.660278 
	C472.563446,658.676514 472.624878,650.688782 472.624878,641.345215 
	C475.006409,642.537109 477.043610,643.007141 478.267609,644.267151 
	C482.851685,648.986389 487.169922,653.963928 492.215332,659.537781 
	C492.215332,653.409607 492.215332,648.179260 492.215332,642.537964 
	C493.900909,642.370972 495.248566,642.237488 496.895142,642.074402 
	C496.895142,651.216370 496.895142,659.988403 496.895142,670.119629 
	C494.531494,668.620239 492.451874,667.835327 491.132599,666.367126 
	C486.623016,661.348450 482.380646,656.089661 477.682983,650.502258 
	C477.682983,656.095337 477.822266,660.957458 477.581268,665.800537 
	C477.523865,666.954468 476.195953,668.045227 475.066772,669.165283 
z"/>
<path fill="#121212" opacity="1.000000" stroke="none" 
	d="
M718.423706,661.877319 
	C718.424744,655.107300 718.424744,648.822632 718.424744,642.291382 
	C725.720886,642.291382 732.320312,642.291382 739.421692,642.291382 
	C739.323730,643.773865 739.222778,645.302856 739.104065,647.099976 
	C733.843872,647.099976 728.887756,647.099976 723.645752,647.099976 
	C723.645752,648.750793 723.645752,650.117249 723.645752,651.818237 
	C728.448120,651.818237 733.055786,651.818237 737.813354,651.818237 
	C737.813354,653.591492 737.813354,655.031494 737.813354,656.819702 
	C733.067444,656.819702 728.457397,656.819702 723.547546,656.819702 
	C723.547546,659.353394 723.547546,661.553894 723.547546,664.052979 
	C729.016724,664.052979 734.433472,664.052979 739.970093,664.052979 
	C739.970093,665.752014 739.970093,667.156555 739.970093,668.847717 
	C732.765015,668.847717 725.849670,668.847717 718.422729,668.847717 
	C718.422729,666.610779 718.422729,664.486755 718.423706,661.877319 
z"/>
<path fill="#101010" opacity="1.000000" stroke="none" 
	d="
M690.854492,664.269043 
	C688.630920,661.246826 686.604675,658.540710 684.578491,655.834534 
	C684.064087,655.997437 683.549683,656.160339 683.035278,656.323242 
	C682.846863,660.305298 682.658508,664.287354 682.453247,668.625793 
	C680.958069,668.720459 679.559875,668.809021 677.920776,668.912842 
	C677.920776,659.872009 677.920776,651.143799 677.920776,642.091492 
	C681.884949,642.091492 685.540833,641.960083 689.183044,642.127197 
	C693.082764,642.306213 696.462036,643.503662 697.217590,648.029236 
	C697.960266,652.478088 696.148438,655.367432 691.420288,656.497925 
	C694.169312,660.460693 696.781738,664.226562 699.484985,668.123352 
	C694.432678,669.310974 694.432678,669.310974 690.854492,664.269043 
M682.389404,647.782043 
	C682.389404,649.211365 682.389404,650.640686 682.389404,652.336914 
	C684.714111,652.336914 686.615479,652.688049 688.302612,652.237488 
	C689.965698,651.793274 691.411926,650.537170 692.953308,649.637329 
	C691.448059,648.731934 690.040283,647.433105 688.410767,647.029480 
	C686.714966,646.609497 684.805115,647.053955 682.389404,647.782043 
z"/>
<path fill="#0C0C0C" opacity="1.000000" stroke="none" 
	d="
M335.557648,660.069702 
	C335.441620,657.056763 334.946381,654.318176 335.535339,651.836975 
	C337.041016,645.493652 342.701996,641.528259 348.741882,642.054871 
	C355.223053,642.619873 359.989624,647.818054 360.414215,654.783936 
	C360.837250,661.725159 357.109436,667.307312 351.053802,668.800354 
	C344.170532,670.497559 338.728271,667.546997 335.557648,660.069702 
M341.811005,650.707275 
	C341.533295,653.292664 340.642212,655.993835 341.103607,658.439819 
	C342.113098,663.791260 348.344147,665.696777 352.398865,662.222229 
	C355.699707,659.393738 356.173035,653.249817 353.342377,649.975159 
	C350.055115,646.172302 346.559448,646.177856 341.811005,650.707275 
z"/>
<path fill="#101010" opacity="1.000000" stroke="none" 
	d="
M637.878540,643.589844 
	C644.718689,640.862732 649.666870,641.791077 653.546997,646.242920 
	C657.428040,650.695801 658.081299,657.675842 655.114685,662.994385 
	C651.511414,669.454346 643.483765,671.254883 637.041870,667.048096 
	C630.663574,662.882812 629.301819,653.195801 634.282593,646.798950 
	C635.177551,645.649475 636.463013,644.804016 637.878540,643.589844 
M647.227234,648.033386 
	C643.692322,645.876404 640.782471,647.092957 638.566650,650.028076 
	C636.050415,653.361023 635.452271,657.503357 638.213379,660.549866 
	C639.977234,662.496216 643.678772,663.958313 646.237000,663.611633 
	C649.976746,663.104797 651.965820,659.374084 651.499939,655.700989 
	C651.177856,653.161377 649.151001,650.837952 647.227234,648.033386 
z"/>
<path fill="#0C0C0C" opacity="1.000000" stroke="none" 
	d="
M556.271118,667.150574 
	C556.306458,665.123474 556.667786,663.205566 557.039795,661.231018 
	C560.383484,662.749695 562.632629,664.443054 564.985718,664.602539 
	C566.540405,664.707886 568.244324,662.609863 569.881470,661.498352 
	C568.692810,660.330505 567.686462,658.792053 566.266846,658.093689 
	C564.685120,657.315430 562.698669,657.407837 560.939575,656.932129 
	C557.345825,655.960144 554.499146,653.454224 555.351318,649.879456 
	C556.008728,647.121826 558.518860,643.541016 560.966553,642.782288 
	C564.334900,641.738159 568.421326,643.010681 573.119324,643.358826 
	C571.634888,646.031860 570.935364,647.291382 570.436707,648.189331 
	C566.749573,648.189331 563.443970,648.189331 560.138367,648.189331 
	C559.987732,648.883179 559.837158,649.577087 559.686523,650.270935 
	C561.936401,651.156982 564.224976,651.957458 566.425842,652.952148 
	C568.797668,654.024109 571.520752,654.823303 573.325195,656.544128 
	C577.444946,660.472961 575.066772,667.944336 569.108093,668.761780 
	C565.082214,669.313965 560.777283,667.831848 556.271118,667.150574 
z"/>
<path fill="#0C0C0C" opacity="1.000000" stroke="none" 
	d="
M269.419250,647.259460 
	C264.857452,646.841614 261.977356,648.610229 260.674408,652.640747 
	C259.415222,656.535828 260.421600,659.982910 263.552032,662.497986 
	C267.297485,665.507080 270.686493,663.566345 274.014465,660.914978 
	C275.461823,662.037720 276.860626,663.122803 278.291321,664.232544 
	C272.114105,670.493774 264.208344,670.871277 258.699432,665.402893 
	C253.519119,660.260681 253.459732,650.548828 258.577850,645.524719 
	C263.768768,640.429077 271.706635,640.680115 277.395325,646.341003 
	C276.506195,647.428833 275.594818,648.543945 274.543671,649.830017 
	C272.918610,648.987244 271.351898,648.174683 269.419250,647.259460 
z"/>
<path fill="#0C0C0C" opacity="1.000000" stroke="none" 
	d="
M508.084717,443.013489 
	C508.586761,441.384369 508.966370,440.141327 509.389984,438.754181 
	C514.048889,440.339478 515.851501,443.453094 514.988098,448.029449 
	C514.146057,452.492676 508.899811,456.359741 503.863312,456.423340 
	C498.810028,456.487122 493.972198,452.929871 492.736572,448.088776 
	C491.666382,443.895660 492.855286,440.687469 496.214294,439.162445 
	C498.248474,441.768646 499.591827,444.692749 501.853363,445.907501 
	C503.085205,446.569183 505.875122,444.330292 508.084717,443.013489 
z"/>
<path fill="#121212" opacity="1.000000" stroke="none" 
	d="
M444.624725,655.032654 
	C444.624847,658.164856 444.624847,660.805603 444.624847,663.795776 
	C446.328430,663.972778 448.087341,664.155518 450.278534,664.383179 
	C450.423798,665.671753 450.579468,667.052490 450.774872,668.785828 
	C444.715302,668.785828 438.999817,668.785828 433.119263,668.785828 
	C433.119263,667.353027 433.119263,665.970398 433.119263,664.311707 
	C435.600555,664.191711 437.844696,664.083252 439.792664,663.989075 
	C439.792664,658.242493 439.792664,652.844177 439.792664,647.545471 
	C433.154541,646.458313 433.154541,646.458313 433.083282,642.295532 
	C438.639069,642.295532 444.202576,642.295532 450.038635,642.295532 
	C450.038635,643.638306 450.038635,645.055481 450.038635,646.821777 
	C448.422607,646.923767 446.844025,647.023438 444.624603,647.163513 
	C444.624603,649.680115 444.624603,652.110596 444.624725,655.032654 
z"/>
<path fill="#121212" opacity="1.000000" stroke="none" 
	d="
M517.049683,642.012329 
	C518.807373,643.218079 520.451904,644.210693 521.490356,645.642822 
	C523.091919,647.851379 524.278442,650.361023 525.655212,652.768005 
	C530.160767,649.598511 529.373352,640.794983 538.028503,642.546387 
	C534.157166,651.171997 525.633118,657.803284 529.108704,668.800659 
	C527.002075,668.960693 525.601013,669.067078 524.310974,669.165039 
	C524.027649,668.576721 523.722473,668.253967 523.773499,668.004150 
	C525.620544,658.971741 519.595764,652.760681 515.928223,645.675415 
	C515.419434,644.692566 511.908417,642.251709 517.049683,642.012329 
z"/>
<path fill="#121212" opacity="1.000000" stroke="none" 
	d="
M604.806458,660.912720 
	C604.803894,663.697327 604.803894,665.997620 604.803894,668.661743 
	C603.160645,668.826172 601.789978,668.963257 599.961548,669.146179 
	C599.961548,661.739441 599.961548,654.667664 599.961548,647.219543 
	C597.158203,647.073669 594.741516,646.947937 591.838928,646.796875 
	C591.729858,645.491272 591.616150,644.129944 591.472412,642.408875 
	C598.459534,642.408875 605.022278,642.408875 612.002380,642.408875 
	C612.114502,643.543579 612.252441,644.939880 612.430298,646.739990 
	C609.883667,646.883728 607.651245,647.009766 604.809021,647.170166 
	C604.809021,651.593872 604.809021,656.011108 604.806458,660.912720 
z"/>
<path fill="#0C0C0C" opacity="1.000000" stroke="none" 
	d="
M395.800110,647.070801 
	C392.614990,646.619263 392.046600,647.988831 392.108643,650.469727 
	C392.257629,656.427673 392.156860,662.391785 392.156860,668.706421 
	C390.494324,668.706421 388.978302,668.706421 387.063141,668.706421 
	C387.063141,661.612732 387.063141,654.553528 387.063141,647.272766 
	C384.751709,647.128540 382.740479,647.274170 380.902039,646.778748 
	C379.921387,646.514465 379.239258,645.142578 378.422363,644.270569 
	C379.331909,643.553345 380.223328,642.243408 381.153900,642.214905 
	C387.254608,642.028442 393.363739,642.118896 399.470123,642.118896 
	C399.791107,642.603577 400.112091,643.088257 400.433075,643.572937 
	C399.034485,644.738098 397.635864,645.903259 395.800110,647.070801 
z"/>
<path fill="#101010" opacity="1.000000" stroke="none" 
	d="
M407.709686,652.953613 
	C408.523590,649.345642 408.872711,645.800293 409.247925,641.989868 
	C410.553253,641.989868 411.965576,641.989868 413.654602,641.989868 
	C413.654602,651.011719 413.654602,659.867004 413.654602,669.003906 
	C412.177673,669.072571 410.734436,669.139587 409.015015,669.219543 
	C409.015015,665.413147 409.015015,661.819946 409.015015,658.169006 
	C404.932739,657.732361 401.099274,657.365234 397.300568,656.774475 
	C397.131500,656.748169 397.278900,654.686829 397.278900,653.016296 
	C400.690613,653.016296 403.967743,653.016296 407.709686,652.953613 
z"/>
<path fill="#101010" opacity="1.000000" stroke="none" 
	d="
M299.157043,669.036743 
	C298.069397,668.278076 296.957581,667.530945 296.945374,666.766235 
	C296.817719,658.794373 296.866669,650.819641 296.866669,642.773987 
	C300.542694,641.183899 301.925598,642.340149 301.871918,645.989319 
	C301.784424,651.939636 301.848328,657.892090 301.848328,664.104187 
	C306.796112,664.104187 311.236938,664.104187 316.071686,664.104187 
	C316.161926,665.751709 316.238525,667.150513 316.342041,669.040161 
	C310.529572,669.040161 305.086456,669.040161 299.157043,669.036743 
z"/>
<path fill="#080808" opacity="1.000000" stroke="none" 
	d="
M702.456848,592.801880 
	C707.113525,592.652832 710.538452,594.031311 710.976868,598.798401 
	C711.325073,602.584717 709.658875,605.745178 705.834900,606.929749 
	C701.747925,608.195679 698.689880,606.213318 696.672729,602.766968 
	C694.210144,598.559509 696.132751,595.190979 702.456848,592.801880 
z"/>
<path fill="#0A0A0A" opacity="1.000000" stroke="none" 
	d="
M907.185547,602.440613 
	C905.806519,599.266846 905.061157,596.027222 908.164246,593.492798 
	C912.249939,590.155884 916.435547,591.664917 920.772827,593.354004 
	C921.031189,592.954773 920.924011,592.949524 920.578247,593.231506 
	C920.531555,594.006409 920.830505,594.499268 921.184814,595.437866 
	C921.131409,597.913879 921.022705,599.944214 920.950439,601.982422 
	C920.986816,601.990173 920.952698,601.923950 920.596802,602.050903 
	C920.131470,602.792786 920.022034,603.407654 919.964417,604.018555 
	C920.016235,604.014526 920.014954,603.910461 919.630371,603.666260 
	C915.830139,603.917542 912.414490,604.413025 909.001587,604.952026 
	C909.004395,604.995605 909.091370,604.987915 909.185913,604.650208 
	C908.860962,604.178223 908.441467,604.044006 908.015503,603.953491 
	C908.009033,603.997253 908.096863,604.007507 908.095459,603.651733 
	C907.737183,602.998718 907.380310,602.701538 907.060303,602.429688 
	C907.097229,602.454956 907.185547,602.440613 907.185547,602.440613 
z"/>
<path fill="#0A0A0A" opacity="1.000000" stroke="none" 
	d="
M554.265015,684.619263 
	C554.281311,688.673889 554.281311,692.289001 554.281311,697.713196 
	C550.912354,694.839050 548.614014,692.878235 545.942322,690.598938 
	C545.515869,692.608643 545.111938,694.512451 544.708008,696.416260 
	C544.268555,696.357849 543.829102,696.299500 543.389648,696.241150 
	C543.389648,691.968262 543.389648,687.695312 543.389648,683.422363 
	C543.696472,683.009460 544.003296,682.596558 544.310120,682.183655 
	C545.882202,684.925110 547.454285,687.666565 549.026428,690.408020 
	C549.649292,689.962769 550.272156,689.517578 550.895020,689.072327 
	C550.977905,687.187134 551.060730,685.302002 551.185303,682.466675 
	C552.493103,683.197937 553.370911,683.688782 554.265015,684.619263 
z"/>
<path fill="#1A1A1A" opacity="1.000000" stroke="none" 
	d="
M484.211334,696.054382 
	C479.834412,697.248535 476.071747,696.476562 474.839233,692.410400 
	C474.193390,690.279785 475.247009,686.748169 476.822876,685.037048 
	C479.198059,682.458008 482.589081,682.932434 486.382141,685.380188 
	C482.827576,686.828613 477.829224,684.486267 477.942047,689.810669 
	C477.974640,691.349243 479.742126,692.851074 480.714264,694.369751 
	C481.267883,693.974548 481.821533,693.579346 482.375153,693.184143 
	C481.589294,692.009460 480.803436,690.834778 479.361450,688.679321 
	C481.885406,689.093750 485.005951,689.064209 485.164642,689.735107 
	C485.617798,691.651123 484.866882,693.851807 484.211334,696.054382 
z"/>
<path fill="#1A1A1A" opacity="1.000000" stroke="none" 
	d="
M445.384338,693.604004 
	C442.481049,694.336304 439.904327,695.306885 436.151611,696.720459 
	C437.954498,692.000000 439.304596,688.063965 441.074219,684.326538 
	C441.301849,683.845764 444.633270,683.924072 444.949982,684.546204 
	C446.786987,688.154541 448.151642,692.003357 449.676056,695.770752 
	C449.315338,696.055908 448.954590,696.341064 448.593872,696.626221 
	C447.632874,695.698242 446.671875,694.770203 445.384338,693.604004 
z"/>
<path fill="#121212" opacity="1.000000" stroke="none" 
	d="
M579.754150,688.306519 
	C579.750549,686.607727 579.750549,685.333801 579.750549,684.330688 
	C583.081665,684.330688 585.896362,684.330688 588.711060,684.330688 
	C588.729492,684.709412 588.747925,685.088074 588.766357,685.466797 
	C586.870361,685.777771 584.974426,686.088806 583.078430,686.399780 
	C583.032104,686.695923 582.985779,686.992004 582.939392,687.288086 
	C584.692627,687.805603 586.445801,688.323059 589.715210,689.288086 
	C586.525085,690.355591 584.780701,690.939270 583.036377,691.523010 
	C583.008972,691.932617 582.981567,692.342224 582.954102,692.751831 
	C584.941162,693.153381 586.928223,693.554932 588.915283,693.956482 
	C588.992798,694.495605 589.070312,695.034729 589.147827,695.573853 
	C586.207520,695.974915 583.267212,696.375977 579.757690,696.854675 
	C579.757690,693.652466 579.757690,691.191895 579.754150,688.306519 
z"/>
<path fill="#282828" opacity="1.000000" stroke="none" 
	d="
M906.815063,602.751770 
	C907.185547,602.440613 907.097229,602.454956 906.711670,602.869263 
	C906.916321,603.524963 907.506592,603.766235 908.096863,604.007507 
	C908.096863,604.007507 908.009033,603.997253 907.807739,604.339844 
	C908.101440,604.784180 908.596436,604.886047 909.091370,604.987915 
	C909.091370,604.987915 909.004395,604.995605 908.961487,605.357239 
	C913.032715,607.664673 916.860291,607.852051 920.014954,603.910461 
	C920.014954,603.910461 920.016235,604.014526 920.383179,603.958496 
	C920.817627,603.242981 920.885193,602.583435 920.952698,601.923950 
	C920.952698,601.923950 920.986816,601.990173 921.301514,602.237366 
	C921.947083,599.931152 922.277954,597.377808 922.513977,594.498779 
	C921.920776,593.765259 921.422363,593.357361 920.924011,592.949524 
	C920.924011,592.949524 921.031189,592.954773 921.045410,593.005737 
	C922.138672,593.335266 923.760010,593.262695 924.205750,593.951233 
	C926.513123,597.515564 925.298706,602.625732 921.628174,606.017639 
	C917.509399,609.823792 911.209167,610.096436 906.568115,606.669312 
	C902.322449,603.534302 901.181091,599.066162 903.259644,594.489380 
	C904.274231,597.220520 905.359375,600.141724 906.815063,602.751770 
z"/>
<path fill="#121212" opacity="1.000000" stroke="none" 
	d="
M409.088928,686.629272 
	C408.126068,686.368347 407.513672,686.274231 405.901855,686.026489 
	C408.801300,689.128662 414.773041,690.383240 411.103668,695.099426 
	C408.734406,698.144592 405.496857,696.215637 402.632721,693.578247 
	C403.845001,692.858704 404.728180,692.334473 404.723236,692.337463 
	C404.485657,689.596802 403.867401,687.228577 404.330383,685.094910 
	C404.482330,684.394775 407.497345,683.853943 409.095306,684.063232 
	C410.602142,684.260620 412.681580,685.458984 409.088928,686.629272 
M408.000000,692.500000 
	C407.800018,692.366638 407.600006,692.233276 407.399994,692.099976 
	C407.433319,692.399963 407.466644,692.700012 408.000000,692.500000 
z"/>
<path fill="#282828" opacity="1.000000" stroke="none" 
	d="
M510.981476,685.663696 
	C510.771393,684.740845 510.848267,683.290771 511.056366,683.271606 
	C512.971802,683.096008 514.909973,683.168152 517.578674,683.168152 
	C514.112610,687.591492 513.174072,691.471130 517.911255,695.804443 
	C514.599915,695.804443 512.100159,695.804443 510.994080,695.804443 
	C511.113831,692.230713 511.221588,689.015381 510.981476,685.663696 
z"/>
<path fill="#121212" opacity="1.000000" stroke="none" 
	d="
M512.479614,418.720032 
	C512.240601,422.165649 511.559540,425.505188 510.517365,428.927795 
	C510.081879,426.369598 509.829590,423.714447 510.033112,421.094757 
	C510.101013,420.221161 511.336060,419.438263 512.479614,418.720032 
z"/>
<path fill="#FDFDFD" opacity="1.000000" stroke="none" 
	d="
M586.967529,561.957520 
	C571.765625,541.140076 581.974670,514.362976 597.171143,505.976440 
	C610.332458,498.713043 623.454468,498.941620 635.890381,507.167389 
	C648.304199,515.378479 653.848145,527.508728 652.602234,542.311523 
	C651.256470,558.300842 641.452393,570.850037 627.056763,574.676270 
	C611.364014,578.847290 597.746216,575.133911 586.967529,561.957520 
z"/>
<path fill="#FAFAFA" opacity="1.000000" stroke="none" 
	d="
M711.173828,516.000732 
	C711.173828,509.871368 711.173828,504.241577 711.173828,498.432098 
	C717.962158,498.432098 724.668396,497.487762 730.988098,498.648376 
	C741.040283,500.494446 746.804626,508.883820 746.129700,518.476685 
	C745.534790,526.931763 738.039612,534.017822 728.182800,534.833984 
	C722.756470,535.283264 717.262512,534.914429 711.173889,534.914429 
	C711.173889,528.661865 711.173889,522.581055 711.173828,516.000732 
z"/>
<path fill="#FAFAFA" opacity="1.000000" stroke="none" 
	d="
M678.778625,548.474060 
	C680.514221,528.785645 677.444397,510.850220 663.675232,495.299408 
	C671.165405,495.299408 677.852417,495.299408 684.868835,495.299408 
	C684.868835,525.116333 684.868835,554.990356 684.868835,585.060669 
	C677.251099,585.060669 669.835632,585.060669 661.352539,585.060669 
	C672.104919,574.825806 676.529480,562.380249 678.778625,548.474060 
z"/>
<path fill="#FAFAFA" opacity="1.000000" stroke="none" 
	d="
M189.772461,549.726318 
	C192.071960,544.515503 194.230743,539.657593 196.748199,533.992493 
	C199.443161,539.494995 201.931061,544.458557 204.313599,549.472229 
	C206.651855,554.392761 208.882996,559.364258 211.376984,564.782227 
	C201.627640,564.782227 192.411804,564.782227 182.615051,564.782227 
	C184.985352,559.815369 187.308548,554.947266 189.772461,549.726318 
z"/>
<path fill="#F7F7F7" opacity="1.000000" stroke="none" 
	d="
M682.689087,647.451172 
	C684.805115,647.053955 686.714966,646.609497 688.410767,647.029480 
	C690.040283,647.433105 691.448059,648.731934 692.953308,649.637329 
	C691.411926,650.537170 689.965698,651.793274 688.302612,652.237488 
	C686.615479,652.688049 684.714111,652.336914 682.389404,652.336914 
	C682.389404,650.640686 682.389404,649.211365 682.689087,647.451172 
z"/>
<path fill="#F7F7F7" opacity="1.000000" stroke="none" 
	d="
M342.004517,650.350037 
	C346.559448,646.177856 350.055115,646.172302 353.342377,649.975159 
	C356.173035,653.249817 355.699707,659.393738 352.398865,662.222229 
	C348.344147,665.696777 342.113098,663.791260 341.103607,658.439819 
	C340.642212,655.993835 341.533295,653.292664 342.004517,650.350037 
z"/>
<path fill="#F7F7F7" opacity="1.000000" stroke="none" 
	d="
M647.556641,648.225647 
	C649.151001,650.837952 651.177856,653.161377 651.499939,655.700989 
	C651.965820,659.374084 649.976746,663.104797 646.237000,663.611633 
	C643.678772,663.958313 639.977234,662.496216 638.213379,660.549866 
	C635.452271,657.503357 636.050415,653.361023 638.566650,650.028076 
	C640.782471,647.092957 643.692322,645.876404 647.556641,648.225647 
z"/>
<path fill="#F7F7F7" opacity="1.000000" stroke="none" 
	d="
M919.630371,603.666260 
	C916.860291,607.852051 913.032715,607.664673 908.958740,605.313721 
	C912.414490,604.413025 915.830139,603.917542 919.630371,603.666260 
z"/>
<path fill="#F7F7F7" opacity="1.000000" stroke="none" 
	d="
M922.608826,594.824402 
	C922.277954,597.377808 921.947083,599.931152 921.265137,602.229614 
	C921.022705,599.944214 921.131409,597.913879 921.554443,595.394409 
	C922.115417,594.878357 922.362122,594.851379 922.608826,594.824402 
z"/>
<path fill="#FFFFFF" opacity="1.000000" stroke="none" 
	d="
M922.513977,594.498779 
	C922.362122,594.851379 922.115417,594.878357 921.499146,594.948730 
	C920.830505,594.499268 920.531555,594.006409 920.578247,593.231506 
	C921.422363,593.357361 921.920776,593.765259 922.513977,594.498779 
z"/>
<path fill="#F7F7F7" opacity="1.000000" stroke="none" 
	d="
M920.596802,602.050903 
	C920.885193,602.583435 920.817627,603.242981 920.331299,603.962524 
	C920.022034,603.407654 920.131470,602.792786 920.596802,602.050903 
z"/>
<path fill="#FFFFFF" opacity="1.000000" stroke="none" 
	d="
M908.095459,603.651733 
	C907.506592,603.766235 906.916321,603.524963 906.674744,602.843994 
	C907.380310,602.701538 907.737183,602.998718 908.095459,603.651733 
z"/>
<path fill="#FFFFFF" opacity="1.000000" stroke="none" 
	d="
M909.185913,604.650208 
	C908.596436,604.886047 908.101440,604.784180 907.814209,604.296021 
	C908.441467,604.044006 908.860962,604.178223 909.185913,604.650208 
z"/>
<path fill="#FFFFFF" opacity="1.000000" stroke="none" 
	d="
M407.750000,692.750000 
	C407.466644,692.700012 407.433319,692.399963 407.399994,692.099976 
	C407.600006,692.233276 407.800018,692.366638 407.750000,692.750000 
z"/>
</svg>