<svg version="1.1" id="Layer_1" xmlns="http://www.w3.org/2000/svg" xmlns:xlink="http://www.w3.org/1999/xlink" x="0px" y="0px"
	 width="100%" viewBox="0 0 971 480" enable-background="new 0 0 971 480" xml:space="preserve">
<path fill="#FEFEFE" opacity="1.000000" stroke="none" 
	d="
M593.000000,481.000000 
	C395.333344,481.000000 198.166672,481.000000 1.000000,481.000000 
	C1.000000,321.000000 1.000000,161.000000 1.000000,1.000000 
	C324.666656,1.000000 648.333313,1.000000 972.000000,1.000000 
	C972.000000,161.000000 972.000000,321.000000 972.000000,481.000000 
	C845.833313,481.000000 719.666687,481.000000 593.000000,481.000000 
M891.501953,360.758240 
	C887.427246,358.654297 883.245544,357.162933 879.163025,360.497620 
	C876.060730,363.031494 876.812134,366.268951 877.447205,370.065796 
	C876.361145,367.145020 875.275024,364.224213 874.260803,361.496826 
	C872.182068,366.062836 873.322266,370.529633 877.568298,373.665375 
	C882.212402,377.095184 888.503174,376.824127 892.623474,373.016693 
	C896.295776,369.623230 897.511353,364.518860 895.205444,360.953613 
	C894.759827,360.264618 893.136719,360.337189 891.501953,360.758240 
M480.969849,196.885803 
	C480.969849,198.149323 480.969849,199.412842 480.969849,201.016968 
	C539.238342,201.016968 596.997803,201.016968 654.726379,201.016968 
	C658.393799,184.239075 652.702209,173.525620 637.715576,167.401855 
	C602.616272,153.059692 567.654663,138.380737 532.561035,124.024452 
	C523.574280,120.348114 516.650024,114.736900 511.717255,106.318245 
	C507.695770,99.454880 502.284790,93.714355 494.597504,90.880424 
	C489.961273,89.171272 485.094635,88.087112 480.088379,86.652435 
	C478.751587,83.482071 481.289520,82.490143 483.670746,81.161362 
	C498.189301,73.059654 503.352325,56.695705 495.890198,42.689316 
	C489.779602,31.219820 476.856903,25.050190 463.836243,27.385954 
	C451.569000,29.586569 442.297882,39.234306 440.554535,51.613506 
	C439.851593,56.604858 442.364929,61.458244 446.424133,62.482719 
	C450.784241,63.583141 452.709808,60.374531 454.512573,57.348934 
	C455.073425,56.407650 454.964447,55.088963 455.281036,53.976894 
	C457.322510,46.806061 462.435547,42.733780 469.326202,42.746220 
	C475.479645,42.757328 481.328613,47.284317 482.944366,53.286377 
	C484.498688,59.060249 482.022522,65.201561 475.245178,68.489059 
	C467.863434,72.069733 464.375610,76.971474 465.890045,85.152397 
	C465.999298,85.742706 465.706879,86.407387 465.550751,87.338554 
	C449.790527,87.116760 438.495239,94.368393 430.985046,107.907745 
	C430.182220,109.355080 429.308899,110.900116 428.083466,111.951050 
	C424.110168,115.358414 420.391937,119.473824 415.788177,121.653999 
	C404.542419,126.979561 392.863464,131.392929 381.343842,136.136963 
	C355.371155,146.833069 329.391663,157.512634 303.409912,168.186752 
	C295.316498,171.511780 289.570770,177.029663 288.371368,185.937912 
	C287.716431,190.802322 288.254395,195.827332 288.254395,200.820679 
	C348.367615,200.820679 408.376160,200.820679 468.590027,200.820679 
	C468.590027,195.572784 468.590027,190.810669 468.590027,185.438934 
	C421.078003,185.438934 373.748260,185.438934 326.418549,185.438934 
	C327.278076,184.092010 328.268982,183.642471 329.269409,183.215088 
	C370.724823,165.504150 412.241119,147.933868 453.609222,130.021240 
	C471.446198,122.297729 471.309723,121.969681 489.276459,129.714188 
	C530.956604,147.680298 572.634216,165.652130 614.309448,183.629532 
	C615.411438,184.104889 616.474243,184.671158 618.129456,185.473267 
	C577.825500,185.473267 538.331055,185.460815 498.836639,185.488892 
	C493.865021,185.492432 488.893494,185.709152 483.038025,185.615356 
	C482.336700,186.439651 481.102051,187.222473 481.034119,188.095978 
	C480.830536,190.715378 481.082672,193.370193 480.969849,196.885803 
M743.863770,287.229767 
	C743.928040,264.695068 733.663574,249.974304 713.065552,244.507980 
	C705.423035,242.479797 697.323608,241.452072 689.408569,241.310410 
	C667.589539,240.919937 645.757874,241.234467 623.931213,241.288269 
	C622.689026,241.291321 621.447144,241.456604 619.630859,241.587891 
	C623.981873,247.195953 630.950745,250.166473 631.947876,258.423431 
	C630.352356,257.282288 629.385925,256.675568 628.513794,255.954712 
	C614.905884,244.707184 599.351440,239.945923 581.698181,240.991959 
	C554.631287,242.595779 530.552734,263.520813 526.613647,290.269897 
	C525.338257,298.930298 525.586060,307.906311 526.023865,316.693787 
	C526.291138,322.059479 527.412537,327.710938 529.578186,332.601837 
	C547.168884,372.328949 595.707153,383.225800 628.950317,355.153992 
	C629.602295,354.603424 630.425415,354.255554 631.500244,353.615784 
	C632.790955,363.181427 623.111633,364.465759 619.673340,370.681213 
	C634.696045,370.681213 649.258423,370.681213 664.122437,370.681213 
	C664.417664,366.014160 664.848267,361.543091 664.953857,357.064362 
	C665.193848,346.886719 667.722595,344.804504 677.804077,346.934326 
	C679.110535,347.210358 680.311584,347.985565 682.201416,348.808044 
	C682.201416,342.288574 682.201416,336.372009 682.201416,330.909943 
	C689.818726,329.882263 697.031921,329.556488 703.909485,327.865692 
	C729.473877,321.581055 741.328430,310.173737 743.863770,287.229767 
M267.936584,312.562561 
	C286.876617,331.224274 305.816620,349.885986 324.440552,368.236237 
	C324.440552,326.335663 324.440552,283.857758 324.440552,241.389160 
	C315.679016,241.389160 307.419556,241.389160 298.915527,241.389160 
	C298.915527,265.580017 298.915527,289.463531 298.915527,314.820465 
	C275.277435,291.318756 252.495880,268.668640 228.811584,245.120972 
	C228.811584,286.224762 228.811584,326.004883 228.811584,365.785004 
	C228.375702,365.914246 227.939804,366.043518 227.503922,366.172760 
	C207.746719,323.760620 187.989517,281.348480 168.026398,238.494293 
	C147.077148,283.043488 126.484627,326.834106 105.690468,371.053528 
	C115.027412,371.053528 123.682816,371.173920 132.327774,370.927582 
	C133.670105,370.889313 135.517914,369.462830 136.184723,368.184326 
	C138.951096,362.880310 141.168137,357.286255 144.011017,352.027985 
	C144.800385,350.567932 147.034729,349.030914 148.632553,349.002258 
	C161.122787,348.778290 173.621262,349.035034 186.112869,348.850555 
	C189.154373,348.805664 190.564362,350.001984 191.736160,352.503937 
	C194.613571,358.647675 197.669769,364.707611 200.658096,370.798157 
	C218.428207,370.798157 236.198334,370.798157 254.957321,370.798157 
	C254.957321,347.366058 254.957321,324.221619 254.957321,301.077148 
	C255.388443,300.978729 255.819550,300.880310 256.250671,300.781921 
	C259.977966,304.543427 263.705292,308.304962 267.936584,312.562561 
M491.171753,320.240143 
	C491.510742,322.107910 492.133698,323.974182 492.143768,325.843719 
	C492.224152,340.809570 492.188690,355.776031 492.188690,370.941895 
	C501.288605,370.941895 509.565002,370.941895 518.296265,370.941895 
	C518.296265,327.760315 518.296265,284.722168 518.296265,241.565491 
	C509.406036,241.565491 500.869598,241.565491 492.130005,241.565491 
	C492.130005,259.699951 492.130005,277.460327 492.130005,295.335449 
	C479.287445,295.335449 466.749084,295.335449 453.904053,295.335449 
	C453.904053,277.195892 453.904053,259.434326 453.904053,241.696091 
	C445.216095,241.696091 436.848633,241.696091 428.623352,241.696091 
	C428.623352,285.076569 428.623352,327.988312 428.623352,370.819458 
	C437.316223,370.819458 445.553986,370.819458 454.147461,370.819458 
	C454.147461,362.121582 454.147461,353.816406 454.147491,345.511200 
	C454.147491,337.244598 454.147461,328.977997 454.147461,320.178223 
	C466.634125,320.178223 478.425140,320.178223 491.171753,320.240143 
M385.527618,343.361755 
	C374.770477,348.818420 366.089264,343.615326 357.920105,337.766663 
	C352.230713,344.881073 346.772034,351.707031 341.163116,358.720886 
	C349.259216,365.519348 357.994843,370.369415 368.137207,372.616028 
	C386.244843,376.626953 407.345215,367.257751 416.002319,351.268463 
	C424.516815,335.542572 420.741699,314.826141 406.947083,301.381256 
	C399.694397,294.312408 390.713470,290.656769 381.204193,287.805023 
	C376.478699,286.387878 371.566803,284.796936 367.567322,282.070129 
	C365.375183,280.575562 363.410065,276.147491 364.053986,273.779480 
	C364.790039,271.072510 368.209686,268.102295 371.066101,267.237366 
	C374.066650,266.328766 377.910614,267.352356 381.140228,268.337402 
	C383.501495,269.057587 385.464966,271.081940 387.348663,272.351654 
	C394.285034,266.216278 400.966309,260.306549 407.847412,254.220078 
	C398.654694,245.493607 388.066010,240.790237 375.456177,240.516403 
	C349.369324,239.949966 329.931305,264.775391 338.023834,288.560638 
	C342.243286,300.962311 351.731689,307.770569 363.523560,311.940155 
	C369.460815,314.039581 375.705902,315.416901 381.401886,318.018280 
	C392.201843,322.950653 394.322418,335.079865 385.527618,343.361755 
M78.756226,307.228882 
	C77.522133,306.330383 75.706253,305.703644 75.140755,304.492889 
	C65.857010,284.616730 56.758533,264.654083 47.512009,244.760330 
	C46.842407,243.319672 45.386383,241.223114 44.240372,241.186798 
	C35.008385,240.894211 25.763048,241.022919 15.766460,241.022919 
	C36.175629,285.623474 56.252731,329.498352 76.329834,373.373230 
	C76.879890,373.357330 77.429947,373.341431 77.979996,373.325531 
	C98.170258,329.489838 118.360519,285.654114 138.862549,241.141510 
	C128.655838,241.141510 119.539474,241.055069 110.429619,241.259125 
	C109.379379,241.282639 107.915787,242.718109 107.401192,243.844849 
	C97.875603,264.701843 88.465240,285.611481 78.756226,307.228882 
M757.630249,241.066956 
	C756.182068,241.066956 754.733887,241.066956 753.209351,241.066956 
	C753.209351,284.724304 753.209351,327.902435 753.209351,370.774841 
	C761.896729,370.774841 770.154907,370.774841 778.892578,370.774841 
	C778.892578,355.673462 778.892578,340.945801 778.892578,325.847198 
	C794.278748,325.847198 809.180298,325.847198 824.173401,325.847198 
	C824.173401,317.729645 824.173401,309.998444 824.173401,301.925598 
	C808.903931,301.925598 793.976135,301.925598 779.025635,301.925598 
	C779.025635,289.842407 779.025635,278.109131 779.025635,265.951904 
	C795.185730,265.951904 811.100403,265.951904 826.999695,265.951904 
	C826.999695,257.474457 826.999695,249.437103 826.999695,241.067322 
	C803.853943,241.067322 781.231140,241.067322 757.630249,241.066956 
M876.893127,269.585205 
	C872.351196,261.074646 867.865051,252.533310 863.206787,244.086914 
	C862.515564,242.833664 861.033447,241.176498 859.882568,241.148865 
	C850.125549,240.914612 840.360413,241.015045 829.923584,241.015045 
	C831.320923,243.601913 832.377686,245.625381 833.494385,247.615189 
	C844.646729,267.486145 855.884766,287.309845 866.871521,307.271881 
	C868.231445,309.742767 868.768616,312.930908 868.829773,315.804932 
	C869.054993,326.380096 868.919250,336.962952 868.919250,347.325806 
	C872.477600,347.164246 875.407288,347.031250 878.408325,346.895020 
	C878.594971,344.743835 878.760193,342.839752 878.926270,340.925629 
	C882.588135,340.925629 885.859192,340.925629 889.270264,340.925629 
	C889.505249,343.051544 889.716919,344.966278 889.936646,346.954102 
	C892.745544,346.954102 895.312012,346.954102 898.161865,346.954102 
	C898.161865,336.441010 898.077026,326.130280 898.234375,315.823212 
	C898.265442,313.787781 898.852844,311.563782 899.820374,309.770142 
	C909.773193,291.318878 919.870605,272.945709 929.894165,254.532455 
	C932.164246,250.362244 934.304016,246.121124 936.956055,241.047409 
	C927.292603,241.047409 918.693726,241.173111 910.102356,240.974731 
	C907.340881,240.910980 906.056274,241.860657 904.852295,244.289261 
	C899.389832,255.307465 893.688110,266.207214 888.055054,277.140594 
	C887.117126,278.960876 886.093201,280.736816 884.797974,283.101013 
	C881.934387,278.261566 879.565674,274.258484 876.893127,269.585205 
M100.022453,410.950378 
	C90.857559,410.959961 81.692657,410.967407 72.527763,410.979645 
	C56.530785,411.000946 40.533726,411.002197 24.536879,411.061371 
	C19.310783,411.080688 15.930724,413.947937 16.027287,418.089050 
	C16.122307,422.163940 19.647564,425.244934 24.502050,425.466461 
	C25.666409,425.519592 26.834488,425.499390 28.000851,425.499084 
	C51.662479,425.492767 75.324364,425.425446 98.985527,425.526276 
	C103.705383,425.546387 106.936424,423.685028 107.693115,419.123260 
	C108.504791,414.230042 105.402756,411.845001 100.022453,410.950378 
M923.603394,411.237976 
	C897.989624,411.176392 872.375732,411.051239 846.762268,411.114624 
	C842.390503,411.125427 839.375549,414.551605 839.477356,418.429138 
	C839.586670,422.593414 843.250122,425.591827 848.630005,425.599487 
	C872.422058,425.633484 896.214172,425.593658 920.006287,425.577545 
	C923.862915,425.574951 926.866089,424.130646 928.109802,420.265747 
	C929.363708,416.369263 927.989075,413.461578 923.603394,411.237976 
M816.557617,411.276611 
	C804.088135,411.171967 791.618835,411.026459 779.149109,410.974396 
	C767.001343,410.923676 754.852966,410.924591 742.705322,410.992554 
	C737.647278,411.020844 734.194336,413.977173 734.079285,418.091675 
	C733.967102,422.103210 737.422302,425.153778 742.484192,425.502319 
	C742.981445,425.536591 743.482239,425.525757 743.981384,425.524963 
	C767.112366,425.488220 790.243530,425.401367 813.374268,425.456451 
	C817.672546,425.466675 820.433167,423.679596 821.568420,419.665649 
	C822.666870,415.781616 820.540039,413.358643 816.557617,411.276611 
M192.298920,425.523285 
	C193.130142,425.523560 193.961380,425.525787 194.792603,425.523834 
	C200.999969,425.509003 204.985428,422.476715 204.957825,417.790771 
	C204.932739,413.533600 201.020721,410.924713 194.628143,410.925446 
	C185.318558,410.926544 176.008987,410.939148 166.699402,410.949890 
	C155.727509,410.962524 144.754532,410.892151 133.784134,411.027405 
	C127.852203,411.100555 125.006279,414.163391 125.706573,419.227234 
	C126.278519,423.362885 129.670181,425.656586 135.489853,425.651855 
	C154.108856,425.636719 172.727798,425.571014 192.298920,425.523285 
M468.139740,427.455322 
	C468.139740,421.497559 468.139740,415.539795 468.139740,409.183807 
	C466.369781,409.269348 465.023743,409.334412 463.127563,409.426025 
	C463.127563,415.097626 463.127563,420.408203 463.127563,426.517426 
	C459.601166,422.570618 456.966614,419.132446 453.823853,416.247986 
	C450.920135,413.582916 449.603638,408.368073 443.808624,409.292175 
	C443.808624,418.248322 443.808624,426.997437 443.808624,435.945679 
	C445.398010,435.945679 446.830841,435.945679 448.359192,435.945679 
	C448.359192,429.906128 448.359192,424.075287 448.359192,417.760040 
	C455.515808,423.561523 458.827362,432.770813 468.140472,437.257385 
	C468.140472,433.374939 468.140472,430.904633 468.139740,427.455322 
M708.976746,420.911530 
	C708.016296,420.211304 707.090027,418.970398 706.089172,418.907074 
	C702.308044,418.667786 698.502808,418.810883 694.334900,418.810883 
	C694.461548,417.027161 694.558594,415.660583 694.676697,413.997559 
	C700.012268,413.997559 704.953064,413.997559 710.059204,413.997559 
	C710.235535,412.281250 710.380005,410.874817 710.533508,409.380096 
	C703.446533,409.380096 696.735962,409.380096 689.770630,409.380096 
	C689.770630,418.439880 689.770630,427.152008 689.770630,435.740082 
	C697.031860,435.740082 703.937744,435.740082 710.965210,435.740082 
	C710.965210,433.940460 710.965210,432.538574 710.965210,430.928070 
	C705.244202,430.928070 699.820251,430.928070 694.453918,430.928070 
	C694.453918,428.474396 694.453918,426.366302 694.453918,423.876343 
	C698.290466,423.876343 701.940063,424.046783 705.557129,423.779175 
	C706.741272,423.691559 707.841187,422.465729 708.976746,420.911530 
M666.200989,411.153900 
	C660.606873,410.187836 655.012756,409.221771 648.923889,408.170288 
	C648.923889,418.139282 648.923889,426.866821 648.923889,435.904816 
	C650.545166,435.808960 651.945740,435.726166 653.451172,435.637207 
	C653.657227,431.302643 653.846680,427.318176 654.050171,423.038239 
	C661.317932,425.647888 660.639099,436.830383 670.873474,435.785431 
	C667.811218,431.307922 665.161682,427.433838 662.477356,423.508911 
	C668.818054,420.945892 669.871521,417.825836 666.200989,411.153900 
M312.198395,434.668549 
	C313.448700,435.106567 314.667206,435.719269 315.954590,435.953613 
	C323.135223,437.260681 329.657074,433.127686 331.187286,426.390747 
	C332.935394,418.694214 328.880249,411.333496 321.834229,409.413696 
	C315.270447,407.625275 308.375977,411.627625 306.554199,418.719696 
	C304.997528,424.779663 306.156677,430.260406 312.198395,434.668549 
M625.960815,430.261871 
	C626.612061,428.224304 627.611328,426.226013 627.846497,424.141510 
	C628.447937,418.809845 626.576599,414.270721 622.185852,411.134796 
	C618.238098,408.315247 613.829407,408.052582 609.471130,410.243317 
	C604.740601,412.621155 601.776001,418.484192 602.296143,424.000305 
	C602.842285,429.791443 606.235168,434.361938 611.552673,435.690399 
	C617.116150,437.080292 622.105408,436.062195 625.960815,430.261871 
M538.967163,415.178619 
	C540.544373,414.302094 542.121643,413.425568 543.698853,412.549011 
	C543.493103,411.795380 543.287354,411.041718 543.081604,410.288086 
	C539.584351,409.941895 536.031677,409.048767 532.604553,409.395538 
	C528.786011,409.781952 526.383362,412.653900 526.170105,416.561646 
	C525.949585,420.603821 528.338013,423.017303 532.166870,423.980072 
	C533.934998,424.424683 535.934998,424.332642 537.485107,425.143219 
	C538.847717,425.855774 539.729736,427.487610 540.823975,428.713409 
	C539.300110,429.757874 537.694580,431.755615 536.270630,431.633636 
	C533.857483,431.426971 531.558960,429.882080 528.785339,428.721069 
	C527.874329,429.841705 526.594727,431.415680 525.315186,432.989655 
	C525.459656,433.578278 525.604126,434.166901 525.748596,434.755554 
	C530.552246,435.160553 535.419434,436.179840 540.130920,435.692780 
	C542.257751,435.472961 545.125610,432.540070 545.732056,430.313690 
	C546.321167,428.150696 545.043945,424.822723 543.475037,422.925171 
	C542.085938,421.245056 539.172485,420.819244 536.924683,419.856903 
	C534.847534,418.967590 532.760498,418.101166 530.677856,417.224640 
	C530.825562,416.477203 530.973206,415.729797 531.120911,414.982361 
	C533.496094,414.982361 535.871216,414.982361 538.967163,415.178619 
M236.862091,408.974335 
	C229.478516,411.012695 226.226807,414.636902 225.894455,421.198425 
	C225.549362,428.011108 228.382141,432.926117 233.978622,435.225006 
	C239.515671,437.499451 244.738571,436.134521 249.119293,431.133331 
	C247.843704,430.106628 246.572769,429.083710 245.348068,428.097992 
	C239.102280,431.717712 236.042404,431.848755 233.333969,428.363770 
	C230.615509,424.865906 230.278214,421.006256 232.803268,417.261200 
	C235.379593,413.440094 238.918243,413.354767 245.606689,416.712585 
	C246.521500,415.608948 247.451721,414.486725 249.465927,412.056732 
	C244.975616,410.851562 241.337952,409.875244 236.862091,408.974335 
M479.657684,222.327103 
	C483.634918,220.047745 487.016205,217.043701 485.950073,212.087646 
	C485.414307,209.596985 483.056061,207.498367 480.802673,204.155365 
	C479.241516,209.426117 478.768646,214.354538 473.548462,213.065353 
	C471.172028,212.478470 469.470245,209.159882 467.026855,206.629257 
	C463.532867,207.956223 461.966095,212.367737 464.474457,217.166031 
	C467.104492,222.197083 472.191864,224.137802 479.657684,222.327103 
M414.405029,436.078278 
	C416.687836,436.078278 418.970612,436.078278 421.615509,436.078278 
	C421.525146,434.229706 421.457947,432.854218 421.384674,431.355011 
	C419.269196,431.186615 417.510986,431.046661 415.838135,430.913483 
	C415.838135,425.199951 415.838135,419.809174 415.838135,414.154388 
	C417.698456,414.045044 419.283905,413.951874 420.920166,413.855682 
	C420.920166,412.134674 420.920166,410.616394 420.920166,409.224731 
	C415.094940,409.224731 409.656799,409.224731 404.277252,409.224731 
	C402.497925,415.529541 407.622559,413.342773 410.702515,414.490295 
	C410.702515,419.817657 410.702515,425.316254 410.702515,431.000488 
	C408.603180,431.110168 406.359406,431.227356 403.826080,431.359711 
	C403.946198,433.172943 404.037506,434.551575 404.138733,436.079620 
	C407.499420,436.079620 410.471802,436.079620 414.405029,436.078278 
M506.180328,414.723755 
	C507.126373,413.058350 508.072388,411.392975 509.127136,409.536224 
	C500.245667,407.698761 501.292450,416.925873 496.736267,419.570312 
	C489.649628,408.812256 489.649628,408.812256 485.309509,409.597839 
	C488.900726,418.255035 497.479523,425.030701 494.337097,436.224365 
	C496.617523,436.048004 497.992706,435.941650 500.078796,435.780334 
	C497.721039,427.506744 501.450317,421.334778 506.180328,414.723755 
M582.674805,413.864166 
	C582.882385,412.352844 583.089905,410.841522 583.291260,409.375275 
	C576.116150,409.375275 569.545105,409.375275 562.557678,409.375275 
	C562.643250,411.062378 562.713318,412.442047 562.782227,413.799805 
	C565.667419,413.938660 568.094543,414.055450 570.926819,414.191772 
	C570.926819,421.593964 570.926819,428.671448 570.926819,436.086060 
	C572.753235,435.941498 574.121094,435.833252 575.930664,435.690033 
	C575.930664,428.283081 575.930664,421.220337 575.930664,413.983856 
	C578.212524,413.983856 580.020874,413.983856 582.674805,413.864166 
M363.162811,423.547668 
	C363.162811,420.450500 363.162811,417.353333 363.162811,414.315033 
	C370.626495,413.817230 370.626495,413.817230 370.352173,409.130188 
	C364.240997,409.130188 358.102814,409.059143 351.970184,409.212219 
	C351.119507,409.233459 350.296478,410.361572 349.460663,410.977295 
	C350.177582,411.917877 350.734283,413.425598 351.644318,413.682678 
	C353.622375,414.241516 355.780731,414.162140 358.249023,414.377075 
	C358.249023,421.770142 358.249023,428.856598 358.249023,436.151978 
	C360.103882,436.017487 361.522552,435.914642 363.164886,435.795563 
	C363.164886,431.814117 363.164886,428.169891 363.162811,423.547668 
M267.846527,414.684052 
	C267.846527,421.759338 267.846527,428.834595 267.846527,435.834137 
	C274.714142,435.834137 280.818878,435.834137 287.035278,435.834137 
	C287.035278,434.222015 287.035278,432.826324 287.035278,431.159302 
	C282.271606,431.159302 277.831787,431.159302 272.845184,431.159302 
	C272.845184,424.950806 272.768738,419.001648 272.875763,413.055817 
	C272.933899,409.825836 271.910736,408.261200 268.105072,409.504089 
	C268.024658,410.823792 267.935974,412.278900 267.846527,414.684052 
M376.370514,420.033691 
	C374.712494,420.036804 373.045074,420.154480 371.398407,420.019348 
	C367.915894,419.733459 367.463959,421.421753 368.565125,424.635925 
	C372.197510,424.635925 375.923737,424.635925 379.934143,424.635925 
	C379.934143,428.647675 379.934143,432.231659 379.934143,436.204407 
	C381.774780,436.094025 383.278137,436.003876 384.695435,435.918884 
	C384.695435,426.669464 384.695435,417.945190 384.695435,408.981049 
	C383.053528,408.981049 381.641907,408.981049 379.863556,408.981049 
	C379.863556,411.799591 380.110779,414.456085 379.747101,417.026154 
	C379.592224,418.120575 378.159698,419.034210 376.370514,420.033691 
M667.911621,370.199402 
	C672.476685,375.236511 677.338806,375.764832 680.356812,371.397186 
	C682.371216,368.481964 683.150513,365.202087 680.554688,362.246307 
	C677.944275,359.273895 674.500244,358.968628 671.029297,360.574799 
	C667.116577,362.385406 665.789368,365.417023 667.911621,370.199402 
M525.089417,450.393768 
	C518.680481,449.035767 524.188477,455.307068 519.939453,456.645935 
	C518.641907,454.581299 516.958679,451.902954 515.275452,449.224640 
	C515.000122,449.630096 514.724792,450.035583 514.449463,450.441040 
	C514.449463,454.715790 514.449463,458.990570 514.449463,463.265350 
	C514.895142,463.296661 515.340759,463.328003 515.786438,463.359314 
	C516.128784,461.503357 516.471191,459.647400 516.843323,457.630066 
	C519.530396,459.796387 521.940918,461.739807 525.253174,464.410156 
	C525.253174,458.869720 525.253174,455.062592 525.089417,450.393768 
M451.605896,453.045868 
	C453.125977,453.045868 454.646057,453.045868 457.584229,453.045868 
	C454.280121,449.786499 451.062286,449.714294 448.967590,451.267426 
	C447.058258,452.683136 445.416748,455.763092 445.398773,458.122833 
	C445.371429,461.707703 448.517059,463.495422 451.962036,463.516327 
	C453.570923,463.526093 455.901794,462.782928 456.600739,461.606140 
	C457.314148,460.405029 457.032379,457.648132 456.071594,456.689087 
	C455.113922,455.733215 452.772949,456.163177 450.436401,455.923859 
	C451.775085,458.006012 452.511047,459.150726 453.982361,461.439209 
	C447.927399,458.840454 447.610443,457.372467 451.605896,453.045868 
M407.960266,461.466370 
	C409.506470,463.957062 409.702881,464.110870 411.185638,462.217407 
	C413.605042,459.127777 415.553894,459.236725 417.696808,462.443451 
	C418.077576,463.013275 419.232697,463.065613 421.045746,463.727844 
	C419.180634,459.101624 417.875366,455.360840 416.175598,451.808868 
	C414.842499,449.023102 412.959503,449.089325 411.655487,451.914948 
	C410.334961,454.776489 409.305023,457.772095 407.960266,461.466370 
M555.393005,450.798615 
	C553.940369,450.798615 552.487793,450.798615 550.971741,450.798615 
	C550.971741,455.211090 550.971741,459.145203 550.971741,463.791290 
	C554.252502,463.369019 557.202515,462.989349 560.152466,462.609650 
	C560.089050,462.055237 560.025574,461.500793 559.962158,460.946350 
	C557.964966,460.574371 555.967773,460.202362 553.970642,459.830353 
	C553.985291,459.403992 553.999939,458.977600 554.014587,458.551239 
	C555.767334,457.974792 557.520142,457.398376 560.731873,456.342133 
	C557.483093,455.371735 555.725342,454.846741 553.967651,454.321716 
	C553.998474,454.037842 554.029297,453.753998 554.060120,453.470123 
	C555.939331,453.108154 557.818604,452.746155 559.697815,452.384186 
	C559.713318,452.050446 559.728760,451.716675 559.744263,451.382935 
	C558.582764,451.188568 557.421326,450.994202 555.393005,450.798615 
M374.427643,453.046539 
	C375.920380,455.493866 377.413147,457.941193 379.000793,460.544159 
	C377.506195,460.268951 375.877899,459.969116 374.249603,459.669281 
	C376.239014,463.223480 379.530731,465.098663 381.885223,462.273590 
	C385.938416,457.410309 379.900024,456.137756 377.046661,453.399292 
	C379.080200,453.399292 380.501678,453.399292 382.289001,453.399292 
	C379.166656,449.926636 378.680481,449.889343 374.427643,453.046539 
M481.664886,452.526825 
	C484.081329,456.095856 483.971344,459.362793 479.570770,462.796387 
	C482.987183,462.796387 485.479431,462.796387 488.478180,462.796387 
	C484.860565,458.645752 484.386963,454.796692 488.217102,451.003967 
	C483.066406,449.604279 482.473907,449.704834 481.664886,452.526825 
z"/>
<path fill="#040404" opacity="1.000000" stroke="none" 
	d="
M483.921936,185.827087 
	C488.893494,185.709152 493.865021,185.492432 498.836639,185.488892 
	C538.331055,185.460815 577.825500,185.473267 618.129456,185.473267 
	C616.474243,184.671158 615.411438,184.104889 614.309448,183.629532 
	C572.634216,165.652130 530.956604,147.680298 489.276459,129.714188 
	C471.309723,121.969681 471.446198,122.297729 453.609222,130.021240 
	C412.241119,147.933868 370.724823,165.504150 329.269409,183.215088 
	C328.268982,183.642471 327.278076,184.092010 326.418549,185.438934 
	C373.748260,185.438934 421.078003,185.438934 468.590027,185.438934 
	C468.590027,190.810669 468.590027,195.572784 468.590027,200.820679 
	C408.376160,200.820679 348.367615,200.820679 288.254395,200.820679 
	C288.254395,195.827332 287.716431,190.802322 288.371368,185.937912 
	C289.570770,177.029663 295.316498,171.511780 303.409912,168.186752 
	C329.391663,157.512634 355.371155,146.833069 381.343842,136.136963 
	C392.863464,131.392929 404.542419,126.979561 415.788177,121.653999 
	C420.391937,119.473824 424.110168,115.358414 428.083466,111.951050 
	C429.308899,110.900116 430.182220,109.355080 430.985046,107.907745 
	C438.495239,94.368393 449.790527,87.116760 465.550751,87.338554 
	C465.706879,86.407387 465.999298,85.742706 465.890045,85.152397 
	C464.375610,76.971474 467.863434,72.069733 475.245178,68.489059 
	C482.022522,65.201561 484.498688,59.060249 482.944366,53.286377 
	C481.328613,47.284317 475.479645,42.757328 469.326202,42.746220 
	C462.435547,42.733780 457.322510,46.806061 455.281036,53.976894 
	C454.964447,55.088963 455.073425,56.407650 454.512573,57.348934 
	C452.709808,60.374531 450.784241,63.583141 446.424133,62.482719 
	C442.364929,61.458244 439.851593,56.604858 440.554535,51.613506 
	C442.297882,39.234306 451.569000,29.586569 463.836243,27.385954 
	C476.856903,25.050190 489.779602,31.219820 495.890198,42.689316 
	C503.352325,56.695705 498.189301,73.059654 483.670746,81.161362 
	C481.289520,82.490143 478.751587,83.482071 480.088379,86.652435 
	C485.094635,88.087112 489.961273,89.171272 494.597504,90.880424 
	C502.284790,93.714355 507.695770,99.454880 511.717255,106.318245 
	C516.650024,114.736900 523.574280,120.348114 532.561035,124.024452 
	C567.654663,138.380737 602.616272,153.059692 637.715576,167.401855 
	C652.702209,173.525620 658.393799,184.239075 654.726379,201.016968 
	C596.997803,201.016968 539.238342,201.016968 480.969849,201.016968 
	C480.969849,199.412842 480.969849,198.149323 481.412109,196.381073 
	C484.652985,192.960602 486.222137,189.791901 483.921936,185.827087 
z"/>
<path fill="#040404" opacity="1.000000" stroke="none" 
	d="
M743.829834,287.680450 
	C741.328430,310.173737 729.473877,321.581055 703.909485,327.865692 
	C697.031921,329.556488 689.818726,329.882263 682.201416,330.909943 
	C682.201416,336.372009 682.201416,342.288574 682.201416,348.808044 
	C680.311584,347.985565 679.110535,347.210358 677.804077,346.934326 
	C667.722595,344.804504 665.193848,346.886719 664.953857,357.064362 
	C664.848267,361.543091 664.417664,366.014160 664.122437,370.681213 
	C649.258423,370.681213 634.696045,370.681213 619.673340,370.681213 
	C623.111633,364.465759 632.790955,363.181427 631.500244,353.615784 
	C630.425415,354.255554 629.602295,354.603424 628.950317,355.153992 
	C595.707153,383.225800 547.168884,372.328949 529.578186,332.601837 
	C527.412537,327.710938 526.291138,322.059479 526.023865,316.693787 
	C525.586060,307.906311 525.338257,298.930298 526.613647,290.269897 
	C530.552734,263.520813 554.631287,242.595779 581.698181,240.991959 
	C599.351440,239.945923 614.905884,244.707184 628.513794,255.954712 
	C629.385925,256.675568 630.352356,257.282288 631.947876,258.423431 
	C630.950745,250.166473 623.981873,247.195953 619.630859,241.587891 
	C621.447144,241.456604 622.689026,241.291321 623.931213,241.288269 
	C645.757874,241.234467 667.589539,240.919937 689.408569,241.310410 
	C697.323608,241.452072 705.423035,242.479797 713.065552,244.507980 
	C733.663574,249.974304 743.928040,264.695068 743.829834,287.680450 
M600.273804,340.989868 
	C614.515869,335.281921 621.931580,324.467621 623.632446,309.499268 
	C625.454712,293.461761 616.341614,277.796387 601.431335,271.081390 
	C587.554871,264.831940 570.361389,268.203979 560.587463,279.091888 
	C549.014893,291.983459 547.171631,311.893524 556.205688,326.422546 
	C565.082947,340.699371 581.847900,346.443298 600.273804,340.989868 
M682.173584,287.494446 
	C682.173584,292.243011 682.173584,296.991608 682.173584,301.913818 
	C688.267700,301.913818 693.762634,302.283752 699.189392,301.833160 
	C709.044922,301.014832 716.538330,293.924835 717.130188,285.469910 
	C717.801575,275.877991 712.032349,267.488647 701.981750,265.645538 
	C695.662048,264.486603 688.956909,265.429565 682.462524,265.429565 
	C682.352966,265.930725 682.225647,266.244019 682.224426,266.557770 
	C682.198975,273.203857 682.187683,279.849976 682.173584,287.494446 
M641.729431,262.119965 
	C639.653870,262.119965 637.578247,262.119965 635.588806,262.119965 
	C656.239502,292.811493 655.525452,322.589661 633.653259,352.058441 
	C640.821655,352.058441 648.233887,352.058441 655.885254,352.058441 
	C655.885254,322.015839 655.885254,292.143982 655.885254,262.144409 
	C651.276917,262.144409 646.974365,262.144409 641.729431,262.119965 
z"/>
<path fill="#030303" opacity="1.000000" stroke="none" 
	d="
M267.684570,312.314514 
	C263.705292,308.304962 259.977966,304.543427 256.250671,300.781921 
	C255.819550,300.880310 255.388443,300.978729 254.957321,301.077148 
	C254.957321,324.221619 254.957321,347.366058 254.957321,370.798157 
	C236.198334,370.798157 218.428207,370.798157 200.656067,370.799713 
	C197.669769,364.707611 194.613571,358.647675 191.736160,352.503937 
	C190.564362,350.001984 189.154373,348.805664 186.112869,348.850555 
	C173.621262,349.035034 161.122787,348.778290 148.632553,349.002258 
	C147.034729,349.030914 144.800385,350.567932 144.011017,352.027985 
	C141.168137,357.286255 138.951096,362.880310 136.184723,368.184326 
	C135.517914,369.462830 133.670105,370.889313 132.327774,370.927582 
	C123.682816,371.173920 115.027412,371.053528 105.690468,371.053528 
	C126.484627,326.834106 147.077148,283.043488 168.026398,238.494293 
	C187.989517,281.348480 207.746719,323.760620 227.503922,366.172760 
	C227.939804,366.043518 228.375702,365.914246 228.811584,365.785004 
	C228.811584,326.004883 228.811584,286.224762 228.811584,245.120972 
	C252.495880,268.668640 275.277435,291.318756 298.915527,314.820465 
	C298.915527,289.463531 298.915527,265.580017 298.915527,241.389160 
	C307.419556,241.389160 315.679016,241.389160 324.440552,241.389160 
	C324.440552,283.857758 324.440552,326.335663 324.440552,368.236237 
	C305.816620,349.885986 286.876617,331.224274 267.684570,312.314514 
M161.869217,314.317047 
	C159.141281,320.108063 156.413345,325.899078 153.634384,331.798370 
	C163.393661,331.798370 172.613571,331.798370 182.522858,331.798370 
	C177.551956,321.338959 172.830154,311.403687 167.793243,300.805359 
	C166.522446,303.739807 165.679047,305.726044 164.803589,307.698059 
	C163.926620,309.673401 163.017654,311.634583 161.869217,314.317047 
z"/>
<path fill="#050505" opacity="1.000000" stroke="none" 
	d="
M490.693970,320.209167 
	C478.425140,320.178223 466.634125,320.178223 454.147461,320.178223 
	C454.147461,328.977997 454.147491,337.244598 454.147491,345.511200 
	C454.147461,353.816406 454.147461,362.121582 454.147461,370.819458 
	C445.553986,370.819458 437.316223,370.819458 428.623352,370.819458 
	C428.623352,327.988312 428.623352,285.076569 428.623352,241.696091 
	C436.848633,241.696091 445.216095,241.696091 453.904053,241.696091 
	C453.904053,259.434326 453.904053,277.195892 453.904053,295.335449 
	C466.749084,295.335449 479.287445,295.335449 492.130005,295.335449 
	C492.130005,277.460327 492.130005,259.699951 492.130005,241.565491 
	C500.869598,241.565491 509.406036,241.565491 518.296265,241.565491 
	C518.296265,284.722168 518.296265,327.760315 518.296265,370.941895 
	C509.565002,370.941895 501.288605,370.941895 492.188690,370.941895 
	C492.188690,355.776031 492.224152,340.809570 492.143768,325.843719 
	C492.133698,323.974182 491.510742,322.107910 490.693970,320.209167 
z"/>
<path fill="#030304" opacity="1.000000" stroke="none" 
	d="
M385.855408,343.143555 
	C394.322418,335.079865 392.201843,322.950653 381.401886,318.018280 
	C375.705902,315.416901 369.460815,314.039581 363.523560,311.940155 
	C351.731689,307.770569 342.243286,300.962311 338.023834,288.560638 
	C329.931305,264.775391 349.369324,239.949966 375.456177,240.516403 
	C388.066010,240.790237 398.654694,245.493607 407.847412,254.220078 
	C400.966309,260.306549 394.285034,266.216278 387.348663,272.351654 
	C385.464966,271.081940 383.501495,269.057587 381.140228,268.337402 
	C377.910614,267.352356 374.066650,266.328766 371.066101,267.237366 
	C368.209686,268.102295 364.790039,271.072510 364.053986,273.779480 
	C363.410065,276.147491 365.375183,280.575562 367.567322,282.070129 
	C371.566803,284.796936 376.478699,286.387878 381.204193,287.805023 
	C390.713470,290.656769 399.694397,294.312408 406.947083,301.381256 
	C420.741699,314.826141 424.516815,335.542572 416.002319,351.268463 
	C407.345215,367.257751 386.244843,376.626953 368.137207,372.616028 
	C357.994843,370.369415 349.259216,365.519348 341.163116,358.720886 
	C346.772034,351.707031 352.230713,344.881073 357.920105,337.766663 
	C366.089264,343.615326 374.770477,348.818420 385.855408,343.143555 
z"/>
<path fill="#030403" opacity="1.000000" stroke="none" 
	d="
M78.893402,306.869446 
	C88.465240,285.611481 97.875603,264.701843 107.401192,243.844849 
	C107.915787,242.718109 109.379379,241.282639 110.429619,241.259125 
	C119.539474,241.055069 128.655838,241.141510 138.862549,241.141510 
	C118.360519,285.654114 98.170258,329.489838 77.979996,373.325531 
	C77.429947,373.341431 76.879890,373.357330 76.329834,373.373230 
	C56.252731,329.498352 36.175629,285.623474 15.766460,241.022919 
	C25.763048,241.022919 35.008385,240.894211 44.240372,241.186798 
	C45.386383,241.223114 46.842407,243.319672 47.512009,244.760330 
	C56.758533,264.654083 65.857010,284.616730 75.140755,304.492889 
	C75.706253,305.703644 77.522133,306.330383 78.893402,306.869446 
z"/>
<path fill="#040404" opacity="1.000000" stroke="none" 
	d="
M758.119324,241.067139 
	C781.231140,241.067322 803.853943,241.067322 826.999695,241.067322 
	C826.999695,249.437103 826.999695,257.474457 826.999695,265.951904 
	C811.100403,265.951904 795.185730,265.951904 779.025635,265.951904 
	C779.025635,278.109131 779.025635,289.842407 779.025635,301.925598 
	C793.976135,301.925598 808.903931,301.925598 824.173401,301.925598 
	C824.173401,309.998444 824.173401,317.729645 824.173401,325.847198 
	C809.180298,325.847198 794.278748,325.847198 778.892578,325.847198 
	C778.892578,340.945801 778.892578,355.673462 778.892578,370.774841 
	C770.154907,370.774841 761.896729,370.774841 753.209351,370.774841 
	C753.209351,327.902435 753.209351,284.724304 753.209351,241.066956 
	C754.733887,241.066956 756.182068,241.066956 758.119324,241.067139 
z"/>
<path fill="#040404" opacity="1.000000" stroke="none" 
	d="
M877.045044,269.920288 
	C879.565674,274.258484 881.934387,278.261566 884.797974,283.101013 
	C886.093201,280.736816 887.117126,278.960876 888.055054,277.140594 
	C893.688110,266.207214 899.389832,255.307465 904.852295,244.289261 
	C906.056274,241.860657 907.340881,240.910980 910.102356,240.974731 
	C918.693726,241.173111 927.292603,241.047409 936.956055,241.047409 
	C934.304016,246.121124 932.164246,250.362244 929.894165,254.532455 
	C919.870605,272.945709 909.773193,291.318878 899.820374,309.770142 
	C898.852844,311.563782 898.265442,313.787781 898.234375,315.823212 
	C898.077026,326.130280 898.161865,336.441010 898.161865,346.954102 
	C895.312012,346.954102 892.745544,346.954102 889.936646,346.954102 
	C889.716919,344.966278 889.505249,343.051544 889.270264,340.925629 
	C885.859192,340.925629 882.588135,340.925629 878.926270,340.925629 
	C878.760193,342.839752 878.594971,344.743835 878.408325,346.895020 
	C875.407288,347.031250 872.477600,347.164246 868.919250,347.325806 
	C868.919250,336.962952 869.054993,326.380096 868.829773,315.804932 
	C868.768616,312.930908 868.231445,309.742767 866.871521,307.271881 
	C855.884766,287.309845 844.646729,267.486145 833.494385,247.615189 
	C832.377686,245.625381 831.320923,243.601913 829.923584,241.015045 
	C840.360413,241.015045 850.125549,240.914612 859.882568,241.148865 
	C861.033447,241.176498 862.515564,242.833664 863.206787,244.086914 
	C867.865051,252.533310 872.351196,261.074646 877.045044,269.920288 
z"/>
<path fill="#080808" opacity="1.000000" stroke="none" 
	d="
M100.460938,410.974487 
	C105.402756,411.845001 108.504791,414.230042 107.693115,419.123260 
	C106.936424,423.685028 103.705383,425.546387 98.985527,425.526276 
	C75.324364,425.425446 51.662479,425.492767 28.000851,425.499084 
	C26.834488,425.499390 25.666409,425.519592 24.502050,425.466461 
	C19.647564,425.244934 16.122307,422.163940 16.027287,418.089050 
	C15.930724,413.947937 19.310783,411.080688 24.536879,411.061371 
	C40.533726,411.002197 56.530785,411.000946 72.527763,410.979645 
	C81.692657,410.967407 90.857559,410.959961 100.460938,410.974487 
z"/>
<path fill="#090909" opacity="1.000000" stroke="none" 
	d="
M923.968140,411.434937 
	C927.989075,413.461578 929.363708,416.369263 928.109802,420.265747 
	C926.866089,424.130646 923.862915,425.574951 920.006287,425.577545 
	C896.214172,425.593658 872.422058,425.633484 848.630005,425.599487 
	C843.250122,425.591827 839.586670,422.593414 839.477356,418.429138 
	C839.375549,414.551605 842.390503,411.125427 846.762268,411.114624 
	C872.375732,411.051239 897.989624,411.176392 923.968140,411.434937 
z"/>
<path fill="#060606" opacity="1.000000" stroke="none" 
	d="
M816.928162,411.465088 
	C820.540039,413.358643 822.666870,415.781616 821.568420,419.665649 
	C820.433167,423.679596 817.672546,425.466675 813.374268,425.456451 
	C790.243530,425.401367 767.112366,425.488220 743.981384,425.524963 
	C743.482239,425.525757 742.981445,425.536591 742.484192,425.502319 
	C737.422302,425.153778 733.967102,422.103210 734.079285,418.091675 
	C734.194336,413.977173 737.647278,411.020844 742.705322,410.992554 
	C754.852966,410.924591 767.001343,410.923676 779.149109,410.974396 
	C791.618835,411.026459 804.088135,411.171967 816.928162,411.465088 
z"/>
<path fill="#090909" opacity="1.000000" stroke="none" 
	d="
M191.822845,425.524048 
	C172.727798,425.571014 154.108856,425.636719 135.489853,425.651855 
	C129.670181,425.656586 126.278519,423.362885 125.706573,419.227234 
	C125.006279,414.163391 127.852203,411.100555 133.784134,411.027405 
	C144.754532,410.892151 155.727509,410.962524 166.699402,410.949890 
	C176.008987,410.939148 185.318558,410.926544 194.628143,410.925446 
	C201.020721,410.924713 204.932739,413.533600 204.957825,417.790771 
	C204.985428,422.476715 200.999969,425.509003 194.792603,425.523834 
	C193.961380,425.525787 193.130142,425.523560 191.822845,425.524048 
z"/>
<path fill="#111111" opacity="1.000000" stroke="none" 
	d="
M468.140106,427.944824 
	C468.140472,430.904633 468.140472,433.374939 468.140472,437.257385 
	C458.827362,432.770813 455.515808,423.561523 448.359192,417.760040 
	C448.359192,424.075287 448.359192,429.906128 448.359192,435.945679 
	C446.830841,435.945679 445.398010,435.945679 443.808624,435.945679 
	C443.808624,426.997437 443.808624,418.248322 443.808624,409.292175 
	C449.603638,408.368073 450.920135,413.582916 453.823853,416.247986 
	C456.966614,419.132446 459.601166,422.570618 463.127563,426.517426 
	C463.127563,420.408203 463.127563,415.097626 463.127563,409.426025 
	C465.023743,409.334412 466.369781,409.269348 468.139740,409.183807 
	C468.139740,415.539795 468.139740,421.497559 468.140106,427.944824 
z"/>
<path fill="#131313" opacity="1.000000" stroke="none" 
	d="
M708.978149,421.335999 
	C707.841187,422.465729 706.741272,423.691559 705.557129,423.779175 
	C701.940063,424.046783 698.290466,423.876343 694.453918,423.876343 
	C694.453918,426.366302 694.453918,428.474396 694.453918,430.928070 
	C699.820251,430.928070 705.244202,430.928070 710.965210,430.928070 
	C710.965210,432.538574 710.965210,433.940460 710.965210,435.740082 
	C703.937744,435.740082 697.031860,435.740082 689.770630,435.740082 
	C689.770630,427.152008 689.770630,418.439880 689.770630,409.380096 
	C696.735962,409.380096 703.446533,409.380096 710.533508,409.380096 
	C710.380005,410.874817 710.235535,412.281250 710.059204,413.997559 
	C704.953064,413.997559 700.012268,413.997559 694.676697,413.997559 
	C694.558594,415.660583 694.461548,417.027161 694.334900,418.810883 
	C698.502808,418.810883 702.308044,418.667786 706.089172,418.907074 
	C707.090027,418.970398 708.016296,420.211304 708.978149,421.335999 
z"/>
<path fill="#111111" opacity="1.000000" stroke="none" 
	d="
M666.475403,411.419373 
	C669.871521,417.825836 668.818054,420.945892 662.477356,423.508911 
	C665.161682,427.433838 667.811218,431.307922 670.873474,435.785431 
	C660.639099,436.830383 661.317932,425.647888 654.050171,423.038239 
	C653.846680,427.318176 653.657227,431.302643 653.451172,435.637207 
	C651.945740,435.726166 650.545166,435.808960 648.923889,435.904816 
	C648.923889,426.866821 648.923889,418.139282 648.923889,408.170288 
	C655.012756,409.221771 660.606873,410.187836 666.475403,411.419373 
M660.152649,419.253693 
	C661.408508,418.272919 662.664368,417.292145 663.920288,416.311401 
	C662.481445,415.516327 661.122070,414.352051 659.583435,414.021027 
	C657.723083,413.620819 655.710999,413.926178 653.593628,413.926178 
	C653.593628,415.916199 653.593628,417.465088 653.593628,419.338776 
	C655.671387,419.338776 657.467957,419.338776 660.152649,419.253693 
z"/>
<path fill="#0C0D0C" opacity="1.000000" stroke="none" 
	d="
M311.883759,434.440247 
	C306.156677,430.260406 304.997528,424.779663 306.554199,418.719696 
	C308.375977,411.627625 315.270447,407.625275 321.834229,409.413696 
	C328.880249,411.333496 332.935394,418.694214 331.187286,426.390747 
	C329.657074,433.127686 323.135223,437.260681 315.954590,435.953613 
	C314.667206,435.719269 313.448700,435.106567 311.883759,434.440247 
M325.768219,425.742920 
	C325.848572,423.942566 326.633545,421.714386 325.856476,420.434662 
	C324.421997,418.072296 322.384247,415.593140 319.986176,414.478485 
	C318.526154,413.799835 315.456757,415.044342 313.926361,416.368286 
	C310.470398,419.358032 310.933380,426.374908 314.324829,429.263794 
	C317.918701,432.325104 321.972382,431.310486 325.768219,425.742920 
z"/>
<path fill="#0F0F0F" opacity="1.000000" stroke="none" 
	d="
M625.759399,430.586670 
	C622.105408,436.062195 617.116150,437.080292 611.552673,435.690399 
	C606.235168,434.361938 602.842285,429.791443 602.296143,424.000305 
	C601.776001,418.484192 604.740601,412.621155 609.471130,410.243317 
	C613.829407,408.052582 618.238098,408.315247 622.185852,411.134796 
	C626.576599,414.270721 628.447937,418.809845 627.846497,424.141510 
	C627.611328,426.226013 626.612061,428.224304 625.759399,430.586670 
M618.431274,430.301544 
	C619.279480,429.527466 620.298096,428.873932 620.945679,427.958038 
	C623.501160,424.343628 623.162537,419.791321 620.097412,416.578430 
	C617.877563,414.251556 615.278625,412.989746 612.124390,414.795593 
	C608.100708,417.099213 607.143311,420.796234 607.920898,425.030579 
	C608.732239,429.448914 612.122620,431.323975 618.431274,430.301544 
z"/>
<path fill="#0C0D0C" opacity="1.000000" stroke="none" 
	d="
M538.606812,415.080505 
	C535.871216,414.982361 533.496094,414.982361 531.120911,414.982361 
	C530.973206,415.729797 530.825562,416.477203 530.677856,417.224640 
	C532.760498,418.101166 534.847534,418.967590 536.924683,419.856903 
	C539.172485,420.819244 542.085938,421.245056 543.475037,422.925171 
	C545.043945,424.822723 546.321167,428.150696 545.732056,430.313690 
	C545.125610,432.540070 542.257751,435.472961 540.130920,435.692780 
	C535.419434,436.179840 530.552246,435.160553 525.748596,434.755554 
	C525.604126,434.166901 525.459656,433.578278 525.315186,432.989655 
	C526.594727,431.415680 527.874329,429.841705 528.785339,428.721069 
	C531.558960,429.882080 533.857483,431.426971 536.270630,431.633636 
	C537.694580,431.755615 539.300110,429.757874 540.823975,428.713409 
	C539.729736,427.487610 538.847717,425.855774 537.485107,425.143219 
	C535.934998,424.332642 533.934998,424.424683 532.166870,423.980072 
	C528.338013,423.017303 525.949585,420.603821 526.170105,416.561646 
	C526.383362,412.653900 528.786011,409.781952 532.604553,409.395538 
	C536.031677,409.048767 539.584351,409.941895 543.081604,410.288086 
	C543.287354,411.041718 543.493103,411.795380 543.698853,412.549011 
	C542.121643,413.425568 540.544373,414.302094 538.606812,415.080505 
z"/>
<path fill="#0C0D0C" opacity="1.000000" stroke="none" 
	d="
M237.281189,408.936615 
	C241.337952,409.875244 244.975616,410.851562 249.465927,412.056732 
	C247.451721,414.486725 246.521500,415.608948 245.606689,416.712585 
	C238.918243,413.354767 235.379593,413.440094 232.803268,417.261200 
	C230.278214,421.006256 230.615509,424.865906 233.333969,428.363770 
	C236.042404,431.848755 239.102280,431.717712 245.348068,428.097992 
	C246.572769,429.083710 247.843704,430.106628 249.119293,431.133331 
	C244.738571,436.134521 239.515671,437.499451 233.978622,435.225006 
	C228.382141,432.926117 225.549362,428.011108 225.894455,421.198425 
	C226.226807,414.636902 229.478516,411.012695 237.281189,408.936615 
z"/>
<path fill="#0C0D0C" opacity="1.000000" stroke="none" 
	d="
M479.329315,222.517319 
	C472.191864,224.137802 467.104492,222.197083 464.474457,217.166031 
	C461.966095,212.367737 463.532867,207.956223 467.026855,206.629257 
	C469.470245,209.159882 471.172028,212.478470 473.548462,213.065353 
	C478.768646,214.354538 479.241516,209.426117 480.802673,204.155365 
	C483.056061,207.498367 485.414307,209.596985 485.950073,212.087646 
	C487.016205,217.043701 483.634918,220.047745 479.329315,222.517319 
z"/>
<path fill="#131313" opacity="1.000000" stroke="none" 
	d="
M413.924622,436.078949 
	C410.471802,436.079620 407.499420,436.079620 404.138733,436.079620 
	C404.037506,434.551575 403.946198,433.172943 403.826080,431.359711 
	C406.359406,431.227356 408.603180,431.110168 410.702515,431.000488 
	C410.702515,425.316254 410.702515,419.817657 410.702515,414.490295 
	C407.622559,413.342773 402.497925,415.529541 404.277252,409.224731 
	C409.656799,409.224731 415.094940,409.224731 420.920166,409.224731 
	C420.920166,410.616394 420.920166,412.134674 420.920166,413.855682 
	C419.283905,413.951874 417.698456,414.045044 415.838135,414.154388 
	C415.838135,419.809174 415.838135,425.199951 415.838135,430.913483 
	C417.510986,431.046661 419.269196,431.186615 421.384674,431.355011 
	C421.457947,432.854218 421.525146,434.229706 421.615509,436.078278 
	C418.970612,436.078278 416.687836,436.078278 413.924622,436.078949 
z"/>
<path fill="#131313" opacity="1.000000" stroke="none" 
	d="
M506.017090,415.052979 
	C501.450317,421.334778 497.721039,427.506744 500.078796,435.780334 
	C497.992706,435.941650 496.617523,436.048004 494.337097,436.224365 
	C497.479523,425.030701 488.900726,418.255035 485.309509,409.597839 
	C489.649628,408.812256 489.649628,408.812256 496.736267,419.570312 
	C501.292450,416.925873 500.245667,407.698761 509.127136,409.536224 
	C508.072388,411.392975 507.126373,413.058350 506.017090,415.052979 
z"/>
<path fill="#111111" opacity="1.000000" stroke="none" 
	d="
M582.251953,413.924011 
	C580.020874,413.983856 578.212524,413.983856 575.930664,413.983856 
	C575.930664,421.220337 575.930664,428.283081 575.930664,435.690033 
	C574.121094,435.833252 572.753235,435.941498 570.926819,436.086060 
	C570.926819,428.671448 570.926819,421.593964 570.926819,414.191772 
	C568.094543,414.055450 565.667419,413.938660 562.782227,413.799805 
	C562.713318,412.442047 562.643250,411.062378 562.557678,409.375275 
	C569.545105,409.375275 576.116150,409.375275 583.291260,409.375275 
	C583.089905,410.841522 582.882385,412.352844 582.251953,413.924011 
z"/>
<path fill="#0C0D0C" opacity="1.000000" stroke="none" 
	d="
M363.163849,424.036682 
	C363.164886,428.169891 363.164886,431.814117 363.164886,435.795563 
	C361.522552,435.914642 360.103882,436.017487 358.249023,436.151978 
	C358.249023,428.856598 358.249023,421.770142 358.249023,414.377075 
	C355.780731,414.162140 353.622375,414.241516 351.644318,413.682678 
	C350.734283,413.425598 350.177582,411.917877 349.460663,410.977295 
	C350.296478,410.361572 351.119507,409.233459 351.970184,409.212219 
	C358.102814,409.059143 364.240997,409.130188 370.352173,409.130188 
	C370.626495,413.817230 370.626495,413.817230 363.162811,414.315033 
	C363.162811,417.353333 363.162811,420.450500 363.163849,424.036682 
z"/>
<path fill="#0F0F0F" opacity="1.000000" stroke="none" 
	d="
M267.846924,414.209045 
	C267.935974,412.278900 268.024658,410.823792 268.105072,409.504089 
	C271.910736,408.261200 272.933899,409.825836 272.875763,413.055817 
	C272.768738,419.001648 272.845184,424.950806 272.845184,431.159302 
	C277.831787,431.159302 282.271606,431.159302 287.035278,431.159302 
	C287.035278,432.826324 287.035278,434.222015 287.035278,435.834137 
	C280.818878,435.834137 274.714142,435.834137 267.846527,435.834137 
	C267.846527,428.834595 267.846527,421.759338 267.846924,414.209045 
z"/>
<path fill="#0F0F0F" opacity="1.000000" stroke="none" 
	d="
M376.839142,420.031830 
	C378.159698,419.034210 379.592224,418.120575 379.747101,417.026154 
	C380.110779,414.456085 379.863556,411.799591 379.863556,408.981049 
	C381.641907,408.981049 383.053528,408.981049 384.695435,408.981049 
	C384.695435,417.945190 384.695435,426.669464 384.695435,435.918884 
	C383.278137,436.003876 381.774780,436.094025 379.934143,436.204407 
	C379.934143,432.231659 379.934143,428.647675 379.934143,424.635925 
	C375.923737,424.635925 372.197510,424.635925 368.565125,424.635925 
	C367.463959,421.421753 367.915894,419.733459 371.398407,420.019348 
	C373.045074,420.154480 374.712494,420.036804 376.839142,420.031830 
z"/>
<path fill="#080808" opacity="1.000000" stroke="none" 
	d="
M667.696045,369.871643 
	C665.789368,365.417023 667.116577,362.385406 671.029297,360.574799 
	C674.500244,358.968628 677.944275,359.273895 680.554688,362.246307 
	C683.150513,365.202087 682.371216,368.481964 680.356812,371.397186 
	C677.338806,375.764832 672.476685,375.236511 667.696045,369.871643 
z"/>
<path fill="#090909" opacity="1.000000" stroke="none" 
	d="
M878.186340,369.440033 
	C876.812134,366.268951 876.060730,363.031494 879.163025,360.497620 
	C883.245544,357.162933 887.427246,358.654297 891.765991,360.357239 
	C892.030029,359.956238 891.923157,359.950500 891.576660,360.231995 
	C891.529480,361.006470 891.828735,361.499512 892.183777,362.438049 
	C892.130920,364.913757 892.022339,366.944000 891.950256,368.982117 
	C891.986694,368.989990 891.952148,368.923920 891.596130,369.050995 
	C891.130737,369.792847 891.021362,370.407623 890.964050,371.018341 
	C891.016052,371.014282 891.014648,370.910034 890.630127,370.665649 
	C886.830200,370.916870 883.414673,371.412445 880.002014,371.951416 
	C880.004822,371.994781 880.091431,371.986816 880.186707,371.649109 
	C879.862305,371.177551 879.442566,371.043671 879.016357,370.953125 
	C879.009827,370.996490 879.096924,371.006592 879.096191,370.650757 
	C878.738342,369.998108 878.381226,369.701294 878.061035,369.429779 
	C878.098022,369.455109 878.186340,369.440033 878.186340,369.440033 
z"/>
<path fill="#090909" opacity="1.000000" stroke="none" 
	d="
M525.171265,450.824646 
	C525.253174,455.062592 525.253174,458.869720 525.253174,464.410156 
	C521.940918,461.739807 519.530396,459.796387 516.843323,457.630066 
	C516.471191,459.647400 516.128784,461.503357 515.786438,463.359314 
	C515.340759,463.328003 514.895142,463.296661 514.449463,463.265350 
	C514.449463,458.990570 514.449463,454.715790 514.449463,450.441040 
	C514.724792,450.035583 515.000122,449.630096 515.275452,449.224640 
	C516.958679,451.902954 518.641907,454.581299 519.939453,456.645935 
	C524.188477,455.307068 518.680481,449.035767 525.171265,450.824646 
z"/>
<path fill="#1B1B1B" opacity="1.000000" stroke="none" 
	d="
M451.232056,453.176086 
	C447.610443,457.372467 447.927399,458.840454 453.982361,461.439209 
	C452.511047,459.150726 451.775085,458.006012 450.436401,455.923859 
	C452.772949,456.163177 455.113922,455.733215 456.071594,456.689087 
	C457.032379,457.648132 457.314148,460.405029 456.600739,461.606140 
	C455.901794,462.782928 453.570923,463.526093 451.962036,463.516327 
	C448.517059,463.495422 445.371429,461.707703 445.398773,458.122833 
	C445.416748,455.763092 447.058258,452.683136 448.967590,451.267426 
	C451.062286,449.714294 454.280121,449.786499 457.584229,453.045868 
	C454.646057,453.045868 453.125977,453.045868 451.232056,453.176086 
z"/>
<path fill="#1B1B1B" opacity="1.000000" stroke="none" 
	d="
M408.054016,461.087677 
	C409.305023,457.772095 410.334961,454.776489 411.655487,451.914948 
	C412.959503,449.089325 414.842499,449.023102 416.175598,451.808868 
	C417.875366,455.360840 419.180634,459.101624 421.045746,463.727844 
	C419.232697,463.065613 418.077576,463.013275 417.696808,462.443451 
	C415.553894,459.236725 413.605042,459.127777 411.185638,462.217407 
	C409.702881,464.110870 409.506470,463.957062 408.054016,461.087677 
z"/>
<path fill="#282828" opacity="1.000000" stroke="none" 
	d="
M877.816772,369.752930 
	C878.186340,369.440033 878.098022,369.455109 877.711304,369.869324 
	C877.915405,370.524567 878.506165,370.765564 879.096924,371.006592 
	C879.096924,371.006592 879.009827,370.996490 878.807739,371.339569 
	C879.100891,371.784058 879.596130,371.885437 880.091431,371.986816 
	C880.091431,371.986816 880.004822,371.994781 879.961304,372.356598 
	C884.032166,374.664398 887.860107,374.853363 891.014648,370.910034 
	C891.014648,370.910034 891.016052,371.014282 891.383057,370.958282 
	C891.817444,370.242828 891.884766,369.583374 891.952148,368.923920 
	C891.952148,368.923920 891.986694,368.989990 892.301147,369.237579 
	C892.946655,366.930603 893.277710,364.376038 893.514038,361.495972 
	C892.920593,360.763794 892.421875,360.357147 891.923157,359.950500 
	C891.923157,359.950500 892.030029,359.956238 892.043457,360.007324 
	C893.136719,360.337189 894.759827,360.264618 895.205444,360.953613 
	C897.511353,364.518860 896.295776,369.623230 892.623474,373.016693 
	C888.503174,376.824127 882.212402,377.095184 877.568298,373.665375 
	C873.322266,370.529633 872.182068,366.062836 874.260803,361.496826 
	C875.275024,364.224213 876.361145,367.145020 877.816772,369.752930 
z"/>
<path fill="#131313" opacity="1.000000" stroke="none" 
	d="
M555.826416,450.799225 
	C557.421326,450.994202 558.582764,451.188568 559.744263,451.382935 
	C559.728760,451.716675 559.713318,452.050446 559.697815,452.384186 
	C557.818604,452.746155 555.939331,453.108154 554.060120,453.470123 
	C554.029297,453.753998 553.998474,454.037842 553.967651,454.321716 
	C555.725342,454.846741 557.483093,455.371735 560.731873,456.342133 
	C557.520142,457.398376 555.767334,457.974792 554.014587,458.551239 
	C553.999939,458.977600 553.985291,459.403992 553.970642,459.830353 
	C555.967773,460.202362 557.964966,460.574371 559.962158,460.946350 
	C560.025574,461.500793 560.089050,462.055237 560.152466,462.609650 
	C557.202515,462.989349 554.252502,463.369019 550.971741,463.791290 
	C550.971741,459.145203 550.971741,455.211090 550.971741,450.798615 
	C552.487793,450.798615 553.940369,450.798615 555.826416,450.799225 
z"/>
<path fill="#131313" opacity="1.000000" stroke="none" 
	d="
M374.621307,452.739868 
	C378.680481,449.889343 379.166656,449.926636 382.289001,453.399292 
	C380.501678,453.399292 379.080200,453.399292 377.046661,453.399292 
	C379.900024,456.137756 385.938416,457.410309 381.885223,462.273590 
	C379.530731,465.098663 376.239014,463.223480 374.249603,459.669281 
	C375.877899,459.969116 377.506195,460.268951 379.000793,460.544159 
	C377.413147,457.941193 375.920380,455.493866 374.621307,452.739868 
z"/>
<path fill="#282828" opacity="1.000000" stroke="none" 
	d="
M481.358154,452.303680 
	C482.473907,449.704834 483.066406,449.604279 488.217102,451.003967 
	C484.386963,454.796692 484.860565,458.645752 488.478180,462.796387 
	C485.479431,462.796387 482.987183,462.796387 479.570770,462.796387 
	C483.971344,459.362793 484.081329,456.095856 481.358154,452.303680 
z"/>
<path fill="#131313" opacity="1.000000" stroke="none" 
	d="
M483.479980,185.721222 
	C486.222137,189.791901 484.652985,192.960602 481.505646,195.943756 
	C481.082672,193.370193 480.830536,190.715378 481.034119,188.095978 
	C481.102051,187.222473 482.336700,186.439651 483.479980,185.721222 
z"/>
<path fill="#FDFDFD" opacity="1.000000" stroke="none" 
	d="
M599.900940,341.127625 
	C581.847900,346.443298 565.082947,340.699371 556.205688,326.422546 
	C547.171631,311.893524 549.014893,291.983459 560.587463,279.091888 
	C570.361389,268.203979 587.554871,264.831940 601.431335,271.081390 
	C616.341614,277.796387 625.454712,293.461761 623.632446,309.499268 
	C621.931580,324.467621 614.515869,335.281921 599.900940,341.127625 
z"/>
<path fill="#FAFAFA" opacity="1.000000" stroke="none" 
	d="
M682.173584,286.995270 
	C682.187683,279.849976 682.198975,273.203857 682.224426,266.557770 
	C682.225647,266.244019 682.352966,265.930725 682.462524,265.429565 
	C688.956909,265.429565 695.662048,264.486603 701.981750,265.645538 
	C712.032349,267.488647 717.801575,275.877991 717.130188,285.469910 
	C716.538330,293.924835 709.044922,301.014832 699.189392,301.833160 
	C693.762634,302.283752 688.267700,301.913818 682.173584,301.913818 
	C682.173584,296.991608 682.173584,292.243011 682.173584,286.995270 
z"/>
<path fill="#FAFAFA" opacity="1.000000" stroke="none" 
	d="
M642.200623,262.132202 
	C646.974365,262.144409 651.276917,262.144409 655.885254,262.144409 
	C655.885254,292.143982 655.885254,322.015839 655.885254,352.058441 
	C648.233887,352.058441 640.821655,352.058441 633.653259,352.058441 
	C655.525452,322.589661 656.239502,292.811493 635.588806,262.119965 
	C637.578247,262.119965 639.653870,262.119965 642.200623,262.132202 
z"/>
<path fill="#FAFAFA" opacity="1.000000" stroke="none" 
	d="
M161.995972,313.959503 
	C163.017654,311.634583 163.926620,309.673401 164.803589,307.698059 
	C165.679047,305.726044 166.522446,303.739807 167.793243,300.805359 
	C172.830154,311.403687 177.551956,321.338959 182.522858,331.798370 
	C172.613571,331.798370 163.393661,331.798370 153.634384,331.798370 
	C156.413345,325.899078 159.141281,320.108063 161.995972,313.959503 
z"/>
<path fill="#F7F7F7" opacity="1.000000" stroke="none" 
	d="
M659.708557,419.296234 
	C657.467957,419.338776 655.671387,419.338776 653.593628,419.338776 
	C653.593628,417.465088 653.593628,415.916199 653.593628,413.926178 
	C655.710999,413.926178 657.723083,413.620819 659.583435,414.021027 
	C661.122070,414.352051 662.481445,415.516327 663.920288,416.311401 
	C662.664368,417.292145 661.408508,418.272919 659.708557,419.296234 
z"/>
<path fill="#F7F7F7" opacity="1.000000" stroke="none" 
	d="
M325.602783,426.112671 
	C321.972382,431.310486 317.918701,432.325104 314.324829,429.263794 
	C310.933380,426.374908 310.470398,419.358032 313.926361,416.368286 
	C315.456757,415.044342 318.526154,413.799835 319.986176,414.478485 
	C322.384247,415.593140 324.421997,418.072296 325.856476,420.434662 
	C326.633545,421.714386 325.848572,423.942566 325.602783,426.112671 
z"/>
<path fill="#F7F7F7" opacity="1.000000" stroke="none" 
	d="
M618.103088,430.520782 
	C612.122620,431.323975 608.732239,429.448914 607.920898,425.030579 
	C607.143311,420.796234 608.100708,417.099213 612.124390,414.795593 
	C615.278625,412.989746 617.877563,414.251556 620.097412,416.578430 
	C623.162537,419.791321 623.501160,424.343628 620.945679,427.958038 
	C620.298096,428.873932 619.279480,429.527466 618.103088,430.520782 
z"/>
<path fill="#F7F7F7" opacity="1.000000" stroke="none" 
	d="
M890.630127,370.665649 
	C887.860107,374.853363 884.032166,374.664398 879.958496,372.313232 
	C883.414673,371.412445 886.830200,370.916870 890.630127,370.665649 
z"/>
<path fill="#F7F7F7" opacity="1.000000" stroke="none" 
	d="
M893.608765,361.821472 
	C893.277710,364.376038 892.946655,366.930603 892.264771,369.229675 
	C892.022339,366.944000 892.130920,364.913757 892.553833,362.394531 
	C893.115051,361.877502 893.361877,361.849487 893.608765,361.821472 
z"/>
<path fill="#FEFEFE" opacity="1.000000" stroke="none" 
	d="
M893.514038,361.495972 
	C893.361877,361.849487 893.115051,361.877502 892.498169,361.949005 
	C891.828735,361.499512 891.529480,361.006470 891.576660,360.231995 
	C892.421875,360.357147 892.920593,360.763794 893.514038,361.495972 
z"/>
<path fill="#F7F7F7" opacity="1.000000" stroke="none" 
	d="
M891.596130,369.050995 
	C891.884766,369.583374 891.817444,370.242828 891.331055,370.962341 
	C891.021362,370.407623 891.130737,369.792847 891.596130,369.050995 
z"/>
<path fill="#FEFEFE" opacity="1.000000" stroke="none" 
	d="
M879.096191,370.650757 
	C878.506165,370.765564 877.915405,370.524567 877.674316,369.843994 
	C878.381226,369.701294 878.738342,369.998108 879.096191,370.650757 
z"/>
<path fill="#FEFEFE" opacity="1.000000" stroke="none" 
	d="
M880.186707,371.649109 
	C879.596130,371.885437 879.100891,371.784058 878.814209,371.296204 
	C879.442566,371.043671 879.862305,371.177551 880.186707,371.649109 
z"/>
</svg>